G04 #@! TF.GenerationSoftware,KiCad,Pcbnew,5.1.10-88a1d61d58~90~ubuntu20.04.1*
G04 #@! TF.CreationDate,2021-10-26T15:29:24+01:00*
G04 #@! TF.ProjectId,IMU,494d552e-6b69-4636-9164-5f7063625858,rev?*
G04 #@! TF.SameCoordinates,Original*
G04 #@! TF.FileFunction,Copper,L2,Bot*
G04 #@! TF.FilePolarity,Positive*
%FSLAX46Y46*%
G04 Gerber Fmt 4.6, Leading zero omitted, Abs format (unit mm)*
G04 Created by KiCad (PCBNEW 5.1.10-88a1d61d58~90~ubuntu20.04.1) date 2021-10-26 15:29:24*
%MOMM*%
%LPD*%
G01*
G04 APERTURE LIST*
G04 #@! TA.AperFunction,EtchedComponent*
%ADD10C,0.050000*%
G04 #@! TD*
G04 #@! TA.AperFunction,SMDPad,CuDef*
%ADD11R,2.000000X0.800000*%
G04 #@! TD*
G04 #@! TA.AperFunction,ViaPad*
%ADD12C,0.600000*%
G04 #@! TD*
G04 #@! TA.AperFunction,Conductor*
%ADD13C,0.250000*%
G04 #@! TD*
G04 #@! TA.AperFunction,Conductor*
%ADD14C,0.150000*%
G04 #@! TD*
G04 #@! TA.AperFunction,Conductor*
%ADD15C,0.100000*%
G04 #@! TD*
G04 APERTURE END LIST*
D10*
X4900000Y-22500000D02*
G75*
G03*
X4900000Y-22500000I-2400000J0D01*
G01*
X14900000Y-2500000D02*
G75*
G03*
X14900000Y-2500000I-2400000J0D01*
G01*
D11*
X6150000Y-7500000D03*
X6150000Y-9500000D03*
X6150000Y-11500000D03*
X6150000Y-13500000D03*
X6150000Y-15500000D03*
X6150000Y-17500000D03*
X8675000Y-17500000D03*
X8675000Y-15500000D03*
X8675000Y-13500000D03*
X8675000Y-11500000D03*
X8675000Y-9500000D03*
X8675000Y-7500000D03*
D12*
X4640000Y-10390000D03*
X5151268Y-24248732D03*
X7620000Y-762000D03*
X2650000Y-750000D03*
X8680000Y-5830000D03*
X8540000Y-3050000D03*
X2660000Y-4760000D03*
X7370000Y-8580000D03*
X2250686Y-17593150D03*
X9190000Y-10490000D03*
X12340000Y-6290000D03*
X2500000Y-9660000D03*
X2600000Y-12370000D03*
X4360000Y-16520000D03*
X1130000Y-9590000D03*
X3420000Y-7790000D03*
X7870000Y-19440000D03*
X10378361Y-14860000D03*
X12110000Y-15240000D03*
X10110000Y-19650000D03*
X8530000Y-14550000D03*
X9540000Y-16460000D03*
X12260000Y-9920000D03*
X12740000Y-23970000D03*
X9110000Y-24030000D03*
X6010000Y-14550000D03*
X6030000Y-16380000D03*
X990000Y-5640000D03*
X5330000Y-5490000D03*
X1460000Y-2530000D03*
X10070000Y-20940000D03*
X14207076Y-22085295D03*
X7860000Y-20280000D03*
X11360000Y-20370000D03*
X11404998Y-17611531D03*
X4735000Y-14345000D03*
X9200000Y-17206219D03*
X8675000Y-15500000D03*
D13*
X6150000Y-9500000D02*
X8675000Y-9500000D01*
D14*
X5530000Y-9500000D02*
X6150000Y-9500000D01*
X4640000Y-10390000D02*
X5530000Y-9500000D01*
X9572040Y-24722041D02*
X14629518Y-24720482D01*
X14674085Y-21175915D02*
X14720741Y-21129259D01*
X14629518Y-24720482D02*
X14674085Y-24675915D01*
X14724256Y-5199990D02*
X11449990Y-5199990D01*
X9848731Y-3598731D02*
X9848731Y-748731D01*
X11449990Y-5199990D02*
X9848731Y-3598731D01*
X9848731Y-748731D02*
X9375010Y-275010D01*
X9375010Y-275010D02*
X400000Y-275010D01*
X374990Y-275010D02*
X275021Y-374978D01*
X400000Y-275010D02*
X374990Y-275010D01*
X275021Y-374978D02*
X275344Y-10375344D01*
X275377Y-11385175D02*
X275376Y-13614825D01*
X275344Y-10375344D02*
X275377Y-11385175D01*
X275376Y-13614825D02*
X275293Y-16200000D01*
X275293Y-16200000D02*
X275293Y-19025293D01*
X275293Y-19025293D02*
X1100000Y-19850000D01*
X5151268Y-21403708D02*
X5151268Y-24248732D01*
X3597560Y-19850000D02*
X5151268Y-21403708D01*
X1100000Y-19850000D02*
X3597560Y-19850000D01*
X5151268Y-24298732D02*
X5552536Y-24700000D01*
X6150000Y-24700000D02*
X6173088Y-24723089D01*
X5552536Y-24700000D02*
X6150000Y-24700000D01*
X6173088Y-24723089D02*
X8727699Y-24722301D01*
X5151268Y-24248732D02*
X5151268Y-24298732D01*
X9325000Y-11500000D02*
X9325000Y-11735641D01*
D13*
X6150000Y-11500000D02*
X8675000Y-11500000D01*
D14*
X9900001Y-14381640D02*
X10378361Y-14860000D01*
X9900001Y-12725001D02*
X9900001Y-14381640D01*
X8675000Y-11500000D02*
X9900001Y-12725001D01*
X14588286Y-21704085D02*
X14207076Y-22085295D01*
X14674085Y-21704085D02*
X14588286Y-21704085D01*
X14674085Y-24675915D02*
X14674085Y-21704085D01*
X14674085Y-21704085D02*
X14674085Y-21175915D01*
X11270000Y-20280000D02*
X11360000Y-20370000D01*
X7860000Y-20280000D02*
X11270000Y-20280000D01*
X11360000Y-17656529D02*
X11404998Y-17611531D01*
X11360000Y-20370000D02*
X11360000Y-17656529D01*
D13*
X6150000Y-7500000D02*
X8675000Y-7500000D01*
D14*
X5580000Y-13500000D02*
X4735000Y-14345000D01*
X5600000Y-13500000D02*
X5580000Y-13500000D01*
D13*
X6150000Y-13500000D02*
X8675000Y-13500000D01*
X6150000Y-17500000D02*
X8675000Y-17500000D01*
X6150000Y-15500000D02*
X8675000Y-15500000D01*
D14*
X10806170Y-436062D02*
X10436062Y-806170D01*
X10145270Y-1241371D01*
X9944969Y-1724940D01*
X9842857Y-2238294D01*
X9842857Y-2761706D01*
X9944969Y-3275060D01*
X10145270Y-3758629D01*
X10436062Y-4193830D01*
X10806170Y-4563938D01*
X11241371Y-4854730D01*
X11724940Y-5055031D01*
X12238294Y-5157143D01*
X12761706Y-5157143D01*
X13275060Y-5055031D01*
X13758629Y-4854730D01*
X14193830Y-4563938D01*
X14563938Y-4193830D01*
X14725001Y-3952783D01*
X14725000Y-10238019D01*
X14389854Y-10225423D01*
X14364961Y-10226922D01*
X14340078Y-10228073D01*
X14336283Y-10228650D01*
X14336279Y-10228650D01*
X13950151Y-10290135D01*
X13926016Y-10296443D01*
X13901836Y-10302404D01*
X13898229Y-10303706D01*
X13898226Y-10303707D01*
X13898224Y-10303708D01*
X13531390Y-10439022D01*
X13508962Y-10449887D01*
X13486379Y-10460441D01*
X13483093Y-10462419D01*
X13483090Y-10462421D01*
X13483089Y-10462422D01*
X13149525Y-10666411D01*
X13129639Y-10681422D01*
X13109532Y-10696164D01*
X13106689Y-10698746D01*
X12819099Y-10963639D01*
X12802502Y-10982232D01*
X12785646Y-11000594D01*
X12783363Y-11003673D01*
X12783359Y-11003678D01*
X12783356Y-11003683D01*
X12552697Y-11319388D01*
X12540022Y-11340860D01*
X12527059Y-11362137D01*
X12525415Y-11365607D01*
X12360468Y-11720105D01*
X12352203Y-11743637D01*
X12343622Y-11767020D01*
X12342683Y-11770743D01*
X12249733Y-12150529D01*
X12246202Y-12175176D01*
X12242320Y-12199822D01*
X12242122Y-12203657D01*
X12224709Y-12594263D01*
X12226034Y-12619153D01*
X12227012Y-12644058D01*
X12227562Y-12647858D01*
X12286351Y-13034408D01*
X12292488Y-13058578D01*
X12298282Y-13082807D01*
X12299560Y-13086428D01*
X12432310Y-13454196D01*
X12443010Y-13476681D01*
X12453414Y-13499356D01*
X12455371Y-13502660D01*
X12657027Y-13837641D01*
X12671912Y-13857650D01*
X12686501Y-13877842D01*
X12689062Y-13880703D01*
X12951943Y-14170135D01*
X12970417Y-14186858D01*
X12988663Y-14203844D01*
X12991731Y-14206153D01*
X13305821Y-14439013D01*
X13327222Y-14451848D01*
X13348390Y-14464948D01*
X13351844Y-14466615D01*
X13351848Y-14466617D01*
X13351852Y-14466618D01*
X13705187Y-14634035D01*
X13728654Y-14642462D01*
X13751983Y-14651208D01*
X13755696Y-14652172D01*
X13755699Y-14652173D01*
X13755701Y-14652173D01*
X14134828Y-14747772D01*
X14159462Y-14751477D01*
X14184068Y-14755529D01*
X14187900Y-14755754D01*
X14187902Y-14755754D01*
X14578377Y-14775893D01*
X14603267Y-14774742D01*
X14628185Y-14773938D01*
X14631990Y-14773414D01*
X14704938Y-14762840D01*
X14718892Y-24720463D01*
X3954607Y-24723782D01*
X4193830Y-24563938D01*
X4563938Y-24193830D01*
X4854730Y-23758629D01*
X5055031Y-23275060D01*
X5157143Y-22761706D01*
X5157143Y-22238294D01*
X5055031Y-21724940D01*
X4854730Y-21241371D01*
X4563938Y-20806170D01*
X4193830Y-20436062D01*
X3882881Y-20228292D01*
X7335000Y-20228292D01*
X7335000Y-20331708D01*
X7355176Y-20433137D01*
X7394751Y-20528681D01*
X7452206Y-20614668D01*
X7525332Y-20687794D01*
X7611319Y-20745249D01*
X7706863Y-20784824D01*
X7808292Y-20805000D01*
X7911708Y-20805000D01*
X8013137Y-20784824D01*
X8108681Y-20745249D01*
X8194668Y-20687794D01*
X8267794Y-20614668D01*
X8290959Y-20580000D01*
X10878729Y-20580000D01*
X10894751Y-20618681D01*
X10952206Y-20704668D01*
X11025332Y-20777794D01*
X11111319Y-20835249D01*
X11206863Y-20874824D01*
X11308292Y-20895000D01*
X11411708Y-20895000D01*
X11513137Y-20874824D01*
X11608681Y-20835249D01*
X11694668Y-20777794D01*
X11767794Y-20704668D01*
X11825249Y-20618681D01*
X11864824Y-20523137D01*
X11885000Y-20421708D01*
X11885000Y-20318292D01*
X11864824Y-20216863D01*
X11825249Y-20121319D01*
X11767794Y-20035332D01*
X11694668Y-19962206D01*
X11660000Y-19939041D01*
X11660000Y-18072556D01*
X11739666Y-18019325D01*
X11812792Y-17946199D01*
X11870247Y-17860212D01*
X11909822Y-17764668D01*
X11929998Y-17663239D01*
X11929998Y-17559823D01*
X11909822Y-17458394D01*
X11870247Y-17362850D01*
X11812792Y-17276863D01*
X11739666Y-17203737D01*
X11653679Y-17146282D01*
X11558135Y-17106707D01*
X11456706Y-17086531D01*
X11353290Y-17086531D01*
X11251861Y-17106707D01*
X11156317Y-17146282D01*
X11070330Y-17203737D01*
X10997204Y-17276863D01*
X10939749Y-17362850D01*
X10900174Y-17458394D01*
X10879998Y-17559823D01*
X10879998Y-17663239D01*
X10900174Y-17764668D01*
X10939749Y-17860212D01*
X10997204Y-17946199D01*
X11060001Y-18008996D01*
X11060000Y-19939041D01*
X11025332Y-19962206D01*
X11007538Y-19980000D01*
X8290959Y-19980000D01*
X8267794Y-19945332D01*
X8194668Y-19872206D01*
X8108681Y-19814751D01*
X8013137Y-19775176D01*
X7911708Y-19755000D01*
X7808292Y-19755000D01*
X7706863Y-19775176D01*
X7611319Y-19814751D01*
X7525332Y-19872206D01*
X7452206Y-19945332D01*
X7394751Y-20031319D01*
X7355176Y-20126863D01*
X7335000Y-20228292D01*
X3882881Y-20228292D01*
X3758629Y-20145270D01*
X3275060Y-19944969D01*
X2761706Y-19842857D01*
X2238294Y-19842857D01*
X1724940Y-19944969D01*
X1241371Y-20145270D01*
X806170Y-20436062D01*
X436062Y-20806170D01*
X275127Y-21047026D01*
X275254Y-17100000D01*
X4923912Y-17100000D01*
X4923912Y-17900000D01*
X4928256Y-17944108D01*
X4941122Y-17986520D01*
X4962015Y-18025608D01*
X4990132Y-18059868D01*
X5024392Y-18087985D01*
X5063480Y-18108878D01*
X5105892Y-18121744D01*
X5150000Y-18126088D01*
X7150000Y-18126088D01*
X7194108Y-18121744D01*
X7236520Y-18108878D01*
X7275608Y-18087985D01*
X7309868Y-18059868D01*
X7337985Y-18025608D01*
X7358878Y-17986520D01*
X7371744Y-17944108D01*
X7376088Y-17900000D01*
X7376088Y-17850000D01*
X7448912Y-17850000D01*
X7448912Y-17900000D01*
X7453256Y-17944108D01*
X7466122Y-17986520D01*
X7487015Y-18025608D01*
X7515132Y-18059868D01*
X7549392Y-18087985D01*
X7588480Y-18108878D01*
X7630892Y-18121744D01*
X7675000Y-18126088D01*
X9675000Y-18126088D01*
X9719108Y-18121744D01*
X9761520Y-18108878D01*
X9800608Y-18087985D01*
X9834868Y-18059868D01*
X9862985Y-18025608D01*
X9883878Y-17986520D01*
X9896744Y-17944108D01*
X9901088Y-17900000D01*
X9901088Y-17100000D01*
X9896744Y-17055892D01*
X9883878Y-17013480D01*
X9862985Y-16974392D01*
X9834868Y-16940132D01*
X9800608Y-16912015D01*
X9761520Y-16891122D01*
X9719108Y-16878256D01*
X9675000Y-16873912D01*
X9609372Y-16873912D01*
X9607794Y-16871551D01*
X9534668Y-16798425D01*
X9448681Y-16740970D01*
X9353137Y-16701395D01*
X9251708Y-16681219D01*
X9148292Y-16681219D01*
X9046863Y-16701395D01*
X8951319Y-16740970D01*
X8865332Y-16798425D01*
X8792206Y-16871551D01*
X8790628Y-16873912D01*
X7675000Y-16873912D01*
X7630892Y-16878256D01*
X7588480Y-16891122D01*
X7549392Y-16912015D01*
X7515132Y-16940132D01*
X7487015Y-16974392D01*
X7466122Y-17013480D01*
X7453256Y-17055892D01*
X7448912Y-17100000D01*
X7448912Y-17150000D01*
X7376088Y-17150000D01*
X7376088Y-17100000D01*
X7371744Y-17055892D01*
X7358878Y-17013480D01*
X7337985Y-16974392D01*
X7309868Y-16940132D01*
X7275608Y-16912015D01*
X7236520Y-16891122D01*
X7194108Y-16878256D01*
X7150000Y-16873912D01*
X5150000Y-16873912D01*
X5105892Y-16878256D01*
X5063480Y-16891122D01*
X5024392Y-16912015D01*
X4990132Y-16940132D01*
X4962015Y-16974392D01*
X4941122Y-17013480D01*
X4928256Y-17055892D01*
X4923912Y-17100000D01*
X275254Y-17100000D01*
X275318Y-15100000D01*
X4923912Y-15100000D01*
X4923912Y-15900000D01*
X4928256Y-15944108D01*
X4941122Y-15986520D01*
X4962015Y-16025608D01*
X4990132Y-16059868D01*
X5024392Y-16087985D01*
X5063480Y-16108878D01*
X5105892Y-16121744D01*
X5150000Y-16126088D01*
X7150000Y-16126088D01*
X7194108Y-16121744D01*
X7236520Y-16108878D01*
X7275608Y-16087985D01*
X7309868Y-16059868D01*
X7337985Y-16025608D01*
X7358878Y-15986520D01*
X7371744Y-15944108D01*
X7376088Y-15900000D01*
X7376088Y-15850000D01*
X7448912Y-15850000D01*
X7448912Y-15900000D01*
X7453256Y-15944108D01*
X7466122Y-15986520D01*
X7487015Y-16025608D01*
X7515132Y-16059868D01*
X7549392Y-16087985D01*
X7588480Y-16108878D01*
X7630892Y-16121744D01*
X7675000Y-16126088D01*
X9675000Y-16126088D01*
X9719108Y-16121744D01*
X9761520Y-16108878D01*
X9800608Y-16087985D01*
X9834868Y-16059868D01*
X9862985Y-16025608D01*
X9883878Y-15986520D01*
X9896744Y-15944108D01*
X9901088Y-15900000D01*
X9901088Y-15100000D01*
X9896744Y-15055892D01*
X9883878Y-15013480D01*
X9862985Y-14974392D01*
X9834868Y-14940132D01*
X9800608Y-14912015D01*
X9761520Y-14891122D01*
X9719108Y-14878256D01*
X9675000Y-14873912D01*
X7675000Y-14873912D01*
X7630892Y-14878256D01*
X7588480Y-14891122D01*
X7549392Y-14912015D01*
X7515132Y-14940132D01*
X7487015Y-14974392D01*
X7466122Y-15013480D01*
X7453256Y-15055892D01*
X7448912Y-15100000D01*
X7448912Y-15150000D01*
X7376088Y-15150000D01*
X7376088Y-15100000D01*
X7371744Y-15055892D01*
X7358878Y-15013480D01*
X7337985Y-14974392D01*
X7309868Y-14940132D01*
X7275608Y-14912015D01*
X7236520Y-14891122D01*
X7194108Y-14878256D01*
X7150000Y-14873912D01*
X5150000Y-14873912D01*
X5105892Y-14878256D01*
X5063480Y-14891122D01*
X5024392Y-14912015D01*
X4990132Y-14940132D01*
X4962015Y-14974392D01*
X4941122Y-15013480D01*
X4928256Y-15055892D01*
X4923912Y-15100000D01*
X275318Y-15100000D01*
X275345Y-14293292D01*
X4210000Y-14293292D01*
X4210000Y-14396708D01*
X4230176Y-14498137D01*
X4269751Y-14593681D01*
X4327206Y-14679668D01*
X4400332Y-14752794D01*
X4486319Y-14810249D01*
X4581863Y-14849824D01*
X4683292Y-14870000D01*
X4786708Y-14870000D01*
X4888137Y-14849824D01*
X4983681Y-14810249D01*
X5069668Y-14752794D01*
X5142794Y-14679668D01*
X5200249Y-14593681D01*
X5239824Y-14498137D01*
X5260000Y-14396708D01*
X5260000Y-14293292D01*
X5251865Y-14252398D01*
X5378176Y-14126088D01*
X7150000Y-14126088D01*
X7194108Y-14121744D01*
X7236520Y-14108878D01*
X7275608Y-14087985D01*
X7309868Y-14059868D01*
X7337985Y-14025608D01*
X7358878Y-13986520D01*
X7371744Y-13944108D01*
X7376088Y-13900000D01*
X7376088Y-13850000D01*
X7448912Y-13850000D01*
X7448912Y-13900000D01*
X7453256Y-13944108D01*
X7466122Y-13986520D01*
X7487015Y-14025608D01*
X7515132Y-14059868D01*
X7549392Y-14087985D01*
X7588480Y-14108878D01*
X7630892Y-14121744D01*
X7675000Y-14126088D01*
X9675000Y-14126088D01*
X9719108Y-14121744D01*
X9761520Y-14108878D01*
X9800608Y-14087985D01*
X9834868Y-14059868D01*
X9862985Y-14025608D01*
X9883878Y-13986520D01*
X9896744Y-13944108D01*
X9901088Y-13900000D01*
X9901088Y-13100000D01*
X9896744Y-13055892D01*
X9883878Y-13013480D01*
X9862985Y-12974392D01*
X9834868Y-12940132D01*
X9800608Y-12912015D01*
X9761520Y-12891122D01*
X9719108Y-12878256D01*
X9675000Y-12873912D01*
X7675000Y-12873912D01*
X7630892Y-12878256D01*
X7588480Y-12891122D01*
X7549392Y-12912015D01*
X7515132Y-12940132D01*
X7487015Y-12974392D01*
X7466122Y-13013480D01*
X7453256Y-13055892D01*
X7448912Y-13100000D01*
X7448912Y-13150000D01*
X7376088Y-13150000D01*
X7376088Y-13100000D01*
X7371744Y-13055892D01*
X7358878Y-13013480D01*
X7337985Y-12974392D01*
X7309868Y-12940132D01*
X7275608Y-12912015D01*
X7236520Y-12891122D01*
X7194108Y-12878256D01*
X7150000Y-12873912D01*
X5150000Y-12873912D01*
X5105892Y-12878256D01*
X5063480Y-12891122D01*
X5024392Y-12912015D01*
X4990132Y-12940132D01*
X4962015Y-12974392D01*
X4941122Y-13013480D01*
X4928256Y-13055892D01*
X4923912Y-13100000D01*
X4923912Y-13731825D01*
X4827602Y-13828135D01*
X4786708Y-13820000D01*
X4683292Y-13820000D01*
X4581863Y-13840176D01*
X4486319Y-13879751D01*
X4400332Y-13937206D01*
X4327206Y-14010332D01*
X4269751Y-14096319D01*
X4230176Y-14191863D01*
X4210000Y-14293292D01*
X275345Y-14293292D01*
X275364Y-13715234D01*
X271385Y-13674828D01*
X255663Y-13622990D01*
X230128Y-13575215D01*
X195765Y-13533340D01*
X153892Y-13498973D01*
X106119Y-13473436D01*
X54281Y-13457710D01*
X372Y-13452399D01*
X-53536Y-13457707D01*
X-105374Y-13473429D01*
X-153149Y-13498964D01*
X-155531Y-13500919D01*
X-366191Y-13619619D01*
X-593063Y-13694211D01*
X-830104Y-13723316D01*
X-1068282Y-13705825D01*
X-1298527Y-13642405D01*
X-1512071Y-13535470D01*
X-1700774Y-13389097D01*
X-1857456Y-13208855D01*
X-1976146Y-13001611D01*
X-2052317Y-12775271D01*
X-2083077Y-12538433D01*
X-2067250Y-12300145D01*
X-2005438Y-12069458D01*
X-1922054Y-11900000D01*
X4923911Y-11900000D01*
X4928255Y-11944108D01*
X4941121Y-11986521D01*
X4962014Y-12025608D01*
X4990131Y-12059869D01*
X5024392Y-12087986D01*
X5063479Y-12108879D01*
X5105892Y-12121745D01*
X5150000Y-12126089D01*
X6068750Y-12125000D01*
X6125000Y-12068750D01*
X6125000Y-11525000D01*
X6175000Y-11525000D01*
X6175000Y-12068750D01*
X6231250Y-12125000D01*
X7150000Y-12126089D01*
X7194108Y-12121745D01*
X7236521Y-12108879D01*
X7275608Y-12087986D01*
X7309869Y-12059869D01*
X7337986Y-12025608D01*
X7358879Y-11986521D01*
X7371745Y-11944108D01*
X7376089Y-11900000D01*
X7448911Y-11900000D01*
X7453255Y-11944108D01*
X7466121Y-11986521D01*
X7487014Y-12025608D01*
X7515131Y-12059869D01*
X7549392Y-12087986D01*
X7588479Y-12108879D01*
X7630892Y-12121745D01*
X7675000Y-12126089D01*
X8593750Y-12125000D01*
X8650000Y-12068750D01*
X8650000Y-11525000D01*
X8700000Y-11525000D01*
X8700000Y-12068750D01*
X8756250Y-12125000D01*
X9675000Y-12126089D01*
X9719108Y-12121745D01*
X9761521Y-12108879D01*
X9800608Y-12087986D01*
X9834869Y-12059869D01*
X9862986Y-12025608D01*
X9883879Y-11986521D01*
X9896745Y-11944108D01*
X9901089Y-11900000D01*
X9900000Y-11581250D01*
X9843750Y-11525000D01*
X8700000Y-11525000D01*
X8650000Y-11525000D01*
X7506250Y-11525000D01*
X7450000Y-11581250D01*
X7448911Y-11900000D01*
X7376089Y-11900000D01*
X7375000Y-11581250D01*
X7318750Y-11525000D01*
X6175000Y-11525000D01*
X6125000Y-11525000D01*
X4981250Y-11525000D01*
X4925000Y-11581250D01*
X4923911Y-11900000D01*
X-1922054Y-11900000D01*
X-1899995Y-11855172D01*
X-1754943Y-11665451D01*
X-1575803Y-11507517D01*
X-1369396Y-11387386D01*
X-1143585Y-11309632D01*
X-906973Y-11277221D01*
X-668573Y-11291385D01*
X-437465Y-11351584D01*
X-214181Y-11459524D01*
X-162613Y-11493269D01*
X-153148Y-11501036D01*
X-105373Y-11526571D01*
X-53535Y-11542293D01*
X373Y-11547601D01*
X54282Y-11542290D01*
X106120Y-11526564D01*
X153893Y-11501027D01*
X195766Y-11466660D01*
X230129Y-11424785D01*
X255664Y-11377010D01*
X271386Y-11325172D01*
X275365Y-11284766D01*
X275360Y-11100000D01*
X4923911Y-11100000D01*
X4925000Y-11418750D01*
X4981250Y-11475000D01*
X6125000Y-11475000D01*
X6125000Y-10931250D01*
X6175000Y-10931250D01*
X6175000Y-11475000D01*
X7318750Y-11475000D01*
X7375000Y-11418750D01*
X7376089Y-11100000D01*
X7448911Y-11100000D01*
X7450000Y-11418750D01*
X7506250Y-11475000D01*
X8650000Y-11475000D01*
X8650000Y-10931250D01*
X8700000Y-10931250D01*
X8700000Y-11475000D01*
X9843750Y-11475000D01*
X9900000Y-11418750D01*
X9901089Y-11100000D01*
X9896745Y-11055892D01*
X9883879Y-11013479D01*
X9862986Y-10974392D01*
X9834869Y-10940131D01*
X9800608Y-10912014D01*
X9761521Y-10891121D01*
X9719108Y-10878255D01*
X9675000Y-10873911D01*
X8756250Y-10875000D01*
X8700000Y-10931250D01*
X8650000Y-10931250D01*
X8593750Y-10875000D01*
X7675000Y-10873911D01*
X7630892Y-10878255D01*
X7588479Y-10891121D01*
X7549392Y-10912014D01*
X7515131Y-10940131D01*
X7487014Y-10974392D01*
X7466121Y-11013479D01*
X7453255Y-11055892D01*
X7448911Y-11100000D01*
X7376089Y-11100000D01*
X7371745Y-11055892D01*
X7358879Y-11013479D01*
X7337986Y-10974392D01*
X7309869Y-10940131D01*
X7275608Y-10912014D01*
X7236521Y-10891121D01*
X7194108Y-10878255D01*
X7150000Y-10873911D01*
X6231250Y-10875000D01*
X6175000Y-10931250D01*
X6125000Y-10931250D01*
X6068750Y-10875000D01*
X5150000Y-10873911D01*
X5105892Y-10878255D01*
X5063479Y-10891121D01*
X5024392Y-10912014D01*
X4990131Y-10940131D01*
X4962014Y-10974392D01*
X4941121Y-11013479D01*
X4928255Y-11055892D01*
X4923911Y-11100000D01*
X275360Y-11100000D01*
X275335Y-10338292D01*
X4115000Y-10338292D01*
X4115000Y-10441708D01*
X4135176Y-10543137D01*
X4174751Y-10638681D01*
X4232206Y-10724668D01*
X4305332Y-10797794D01*
X4391319Y-10855249D01*
X4486863Y-10894824D01*
X4588292Y-10915000D01*
X4691708Y-10915000D01*
X4793137Y-10894824D01*
X4888681Y-10855249D01*
X4974668Y-10797794D01*
X5047794Y-10724668D01*
X5105249Y-10638681D01*
X5144824Y-10543137D01*
X5165000Y-10441708D01*
X5165000Y-10338292D01*
X5156865Y-10297398D01*
X5328176Y-10126088D01*
X7150000Y-10126088D01*
X7194108Y-10121744D01*
X7236520Y-10108878D01*
X7275608Y-10087985D01*
X7309868Y-10059868D01*
X7337985Y-10025608D01*
X7358878Y-9986520D01*
X7371744Y-9944108D01*
X7376088Y-9900000D01*
X7376088Y-9850000D01*
X7448912Y-9850000D01*
X7448912Y-9900000D01*
X7453256Y-9944108D01*
X7466122Y-9986520D01*
X7487015Y-10025608D01*
X7515132Y-10059868D01*
X7549392Y-10087985D01*
X7588480Y-10108878D01*
X7630892Y-10121744D01*
X7675000Y-10126088D01*
X9675000Y-10126088D01*
X9719108Y-10121744D01*
X9761520Y-10108878D01*
X9800608Y-10087985D01*
X9834868Y-10059868D01*
X9862985Y-10025608D01*
X9883878Y-9986520D01*
X9896744Y-9944108D01*
X9901088Y-9900000D01*
X9901088Y-9100000D01*
X9896744Y-9055892D01*
X9883878Y-9013480D01*
X9862985Y-8974392D01*
X9834868Y-8940132D01*
X9800608Y-8912015D01*
X9761520Y-8891122D01*
X9719108Y-8878256D01*
X9675000Y-8873912D01*
X7675000Y-8873912D01*
X7630892Y-8878256D01*
X7588480Y-8891122D01*
X7549392Y-8912015D01*
X7515132Y-8940132D01*
X7487015Y-8974392D01*
X7466122Y-9013480D01*
X7453256Y-9055892D01*
X7448912Y-9100000D01*
X7448912Y-9150000D01*
X7376088Y-9150000D01*
X7376088Y-9100000D01*
X7371744Y-9055892D01*
X7358878Y-9013480D01*
X7337985Y-8974392D01*
X7309868Y-8940132D01*
X7275608Y-8912015D01*
X7236520Y-8891122D01*
X7194108Y-8878256D01*
X7150000Y-8873912D01*
X5150000Y-8873912D01*
X5105892Y-8878256D01*
X5063480Y-8891122D01*
X5024392Y-8912015D01*
X4990132Y-8940132D01*
X4962015Y-8974392D01*
X4941122Y-9013480D01*
X4928256Y-9055892D01*
X4923912Y-9100000D01*
X4923912Y-9681824D01*
X4732602Y-9873135D01*
X4691708Y-9865000D01*
X4588292Y-9865000D01*
X4486863Y-9885176D01*
X4391319Y-9924751D01*
X4305332Y-9982206D01*
X4232206Y-10055332D01*
X4174751Y-10141319D01*
X4135176Y-10236863D01*
X4115000Y-10338292D01*
X275335Y-10338292D01*
X275230Y-7100000D01*
X4923912Y-7100000D01*
X4923912Y-7900000D01*
X4928256Y-7944108D01*
X4941122Y-7986520D01*
X4962015Y-8025608D01*
X4990132Y-8059868D01*
X5024392Y-8087985D01*
X5063480Y-8108878D01*
X5105892Y-8121744D01*
X5150000Y-8126088D01*
X7150000Y-8126088D01*
X7194108Y-8121744D01*
X7236520Y-8108878D01*
X7275608Y-8087985D01*
X7309868Y-8059868D01*
X7337985Y-8025608D01*
X7358878Y-7986520D01*
X7371744Y-7944108D01*
X7376088Y-7900000D01*
X7376088Y-7850000D01*
X7448912Y-7850000D01*
X7448912Y-7900000D01*
X7453256Y-7944108D01*
X7466122Y-7986520D01*
X7487015Y-8025608D01*
X7515132Y-8059868D01*
X7549392Y-8087985D01*
X7588480Y-8108878D01*
X7630892Y-8121744D01*
X7675000Y-8126088D01*
X9675000Y-8126088D01*
X9719108Y-8121744D01*
X9761520Y-8108878D01*
X9800608Y-8087985D01*
X9834868Y-8059868D01*
X9862985Y-8025608D01*
X9883878Y-7986520D01*
X9896744Y-7944108D01*
X9901088Y-7900000D01*
X9901088Y-7100000D01*
X9896744Y-7055892D01*
X9883878Y-7013480D01*
X9862985Y-6974392D01*
X9834868Y-6940132D01*
X9800608Y-6912015D01*
X9761520Y-6891122D01*
X9719108Y-6878256D01*
X9675000Y-6873912D01*
X7675000Y-6873912D01*
X7630892Y-6878256D01*
X7588480Y-6891122D01*
X7549392Y-6912015D01*
X7515132Y-6940132D01*
X7487015Y-6974392D01*
X7466122Y-7013480D01*
X7453256Y-7055892D01*
X7448912Y-7100000D01*
X7448912Y-7150000D01*
X7376088Y-7150000D01*
X7376088Y-7100000D01*
X7371744Y-7055892D01*
X7358878Y-7013480D01*
X7337985Y-6974392D01*
X7309868Y-6940132D01*
X7275608Y-6912015D01*
X7236520Y-6891122D01*
X7194108Y-6878256D01*
X7150000Y-6873912D01*
X5150000Y-6873912D01*
X5105892Y-6878256D01*
X5063480Y-6891122D01*
X5024392Y-6912015D01*
X4990132Y-6940132D01*
X4962015Y-6974392D01*
X4941122Y-7013480D01*
X4928256Y-7055892D01*
X4923912Y-7100000D01*
X275230Y-7100000D01*
X275008Y-275000D01*
X11047216Y-275000D01*
X10806170Y-436062D01*
G04 #@! TA.AperFunction,Conductor*
D15*
G36*
X10806170Y-436062D02*
G01*
X10436062Y-806170D01*
X10145270Y-1241371D01*
X9944969Y-1724940D01*
X9842857Y-2238294D01*
X9842857Y-2761706D01*
X9944969Y-3275060D01*
X10145270Y-3758629D01*
X10436062Y-4193830D01*
X10806170Y-4563938D01*
X11241371Y-4854730D01*
X11724940Y-5055031D01*
X12238294Y-5157143D01*
X12761706Y-5157143D01*
X13275060Y-5055031D01*
X13758629Y-4854730D01*
X14193830Y-4563938D01*
X14563938Y-4193830D01*
X14725001Y-3952783D01*
X14725000Y-10238019D01*
X14389854Y-10225423D01*
X14364961Y-10226922D01*
X14340078Y-10228073D01*
X14336283Y-10228650D01*
X14336279Y-10228650D01*
X13950151Y-10290135D01*
X13926016Y-10296443D01*
X13901836Y-10302404D01*
X13898229Y-10303706D01*
X13898226Y-10303707D01*
X13898224Y-10303708D01*
X13531390Y-10439022D01*
X13508962Y-10449887D01*
X13486379Y-10460441D01*
X13483093Y-10462419D01*
X13483090Y-10462421D01*
X13483089Y-10462422D01*
X13149525Y-10666411D01*
X13129639Y-10681422D01*
X13109532Y-10696164D01*
X13106689Y-10698746D01*
X12819099Y-10963639D01*
X12802502Y-10982232D01*
X12785646Y-11000594D01*
X12783363Y-11003673D01*
X12783359Y-11003678D01*
X12783356Y-11003683D01*
X12552697Y-11319388D01*
X12540022Y-11340860D01*
X12527059Y-11362137D01*
X12525415Y-11365607D01*
X12360468Y-11720105D01*
X12352203Y-11743637D01*
X12343622Y-11767020D01*
X12342683Y-11770743D01*
X12249733Y-12150529D01*
X12246202Y-12175176D01*
X12242320Y-12199822D01*
X12242122Y-12203657D01*
X12224709Y-12594263D01*
X12226034Y-12619153D01*
X12227012Y-12644058D01*
X12227562Y-12647858D01*
X12286351Y-13034408D01*
X12292488Y-13058578D01*
X12298282Y-13082807D01*
X12299560Y-13086428D01*
X12432310Y-13454196D01*
X12443010Y-13476681D01*
X12453414Y-13499356D01*
X12455371Y-13502660D01*
X12657027Y-13837641D01*
X12671912Y-13857650D01*
X12686501Y-13877842D01*
X12689062Y-13880703D01*
X12951943Y-14170135D01*
X12970417Y-14186858D01*
X12988663Y-14203844D01*
X12991731Y-14206153D01*
X13305821Y-14439013D01*
X13327222Y-14451848D01*
X13348390Y-14464948D01*
X13351844Y-14466615D01*
X13351848Y-14466617D01*
X13351852Y-14466618D01*
X13705187Y-14634035D01*
X13728654Y-14642462D01*
X13751983Y-14651208D01*
X13755696Y-14652172D01*
X13755699Y-14652173D01*
X13755701Y-14652173D01*
X14134828Y-14747772D01*
X14159462Y-14751477D01*
X14184068Y-14755529D01*
X14187900Y-14755754D01*
X14187902Y-14755754D01*
X14578377Y-14775893D01*
X14603267Y-14774742D01*
X14628185Y-14773938D01*
X14631990Y-14773414D01*
X14704938Y-14762840D01*
X14718892Y-24720463D01*
X3954607Y-24723782D01*
X4193830Y-24563938D01*
X4563938Y-24193830D01*
X4854730Y-23758629D01*
X5055031Y-23275060D01*
X5157143Y-22761706D01*
X5157143Y-22238294D01*
X5055031Y-21724940D01*
X4854730Y-21241371D01*
X4563938Y-20806170D01*
X4193830Y-20436062D01*
X3882881Y-20228292D01*
X7335000Y-20228292D01*
X7335000Y-20331708D01*
X7355176Y-20433137D01*
X7394751Y-20528681D01*
X7452206Y-20614668D01*
X7525332Y-20687794D01*
X7611319Y-20745249D01*
X7706863Y-20784824D01*
X7808292Y-20805000D01*
X7911708Y-20805000D01*
X8013137Y-20784824D01*
X8108681Y-20745249D01*
X8194668Y-20687794D01*
X8267794Y-20614668D01*
X8290959Y-20580000D01*
X10878729Y-20580000D01*
X10894751Y-20618681D01*
X10952206Y-20704668D01*
X11025332Y-20777794D01*
X11111319Y-20835249D01*
X11206863Y-20874824D01*
X11308292Y-20895000D01*
X11411708Y-20895000D01*
X11513137Y-20874824D01*
X11608681Y-20835249D01*
X11694668Y-20777794D01*
X11767794Y-20704668D01*
X11825249Y-20618681D01*
X11864824Y-20523137D01*
X11885000Y-20421708D01*
X11885000Y-20318292D01*
X11864824Y-20216863D01*
X11825249Y-20121319D01*
X11767794Y-20035332D01*
X11694668Y-19962206D01*
X11660000Y-19939041D01*
X11660000Y-18072556D01*
X11739666Y-18019325D01*
X11812792Y-17946199D01*
X11870247Y-17860212D01*
X11909822Y-17764668D01*
X11929998Y-17663239D01*
X11929998Y-17559823D01*
X11909822Y-17458394D01*
X11870247Y-17362850D01*
X11812792Y-17276863D01*
X11739666Y-17203737D01*
X11653679Y-17146282D01*
X11558135Y-17106707D01*
X11456706Y-17086531D01*
X11353290Y-17086531D01*
X11251861Y-17106707D01*
X11156317Y-17146282D01*
X11070330Y-17203737D01*
X10997204Y-17276863D01*
X10939749Y-17362850D01*
X10900174Y-17458394D01*
X10879998Y-17559823D01*
X10879998Y-17663239D01*
X10900174Y-17764668D01*
X10939749Y-17860212D01*
X10997204Y-17946199D01*
X11060001Y-18008996D01*
X11060000Y-19939041D01*
X11025332Y-19962206D01*
X11007538Y-19980000D01*
X8290959Y-19980000D01*
X8267794Y-19945332D01*
X8194668Y-19872206D01*
X8108681Y-19814751D01*
X8013137Y-19775176D01*
X7911708Y-19755000D01*
X7808292Y-19755000D01*
X7706863Y-19775176D01*
X7611319Y-19814751D01*
X7525332Y-19872206D01*
X7452206Y-19945332D01*
X7394751Y-20031319D01*
X7355176Y-20126863D01*
X7335000Y-20228292D01*
X3882881Y-20228292D01*
X3758629Y-20145270D01*
X3275060Y-19944969D01*
X2761706Y-19842857D01*
X2238294Y-19842857D01*
X1724940Y-19944969D01*
X1241371Y-20145270D01*
X806170Y-20436062D01*
X436062Y-20806170D01*
X275127Y-21047026D01*
X275254Y-17100000D01*
X4923912Y-17100000D01*
X4923912Y-17900000D01*
X4928256Y-17944108D01*
X4941122Y-17986520D01*
X4962015Y-18025608D01*
X4990132Y-18059868D01*
X5024392Y-18087985D01*
X5063480Y-18108878D01*
X5105892Y-18121744D01*
X5150000Y-18126088D01*
X7150000Y-18126088D01*
X7194108Y-18121744D01*
X7236520Y-18108878D01*
X7275608Y-18087985D01*
X7309868Y-18059868D01*
X7337985Y-18025608D01*
X7358878Y-17986520D01*
X7371744Y-17944108D01*
X7376088Y-17900000D01*
X7376088Y-17850000D01*
X7448912Y-17850000D01*
X7448912Y-17900000D01*
X7453256Y-17944108D01*
X7466122Y-17986520D01*
X7487015Y-18025608D01*
X7515132Y-18059868D01*
X7549392Y-18087985D01*
X7588480Y-18108878D01*
X7630892Y-18121744D01*
X7675000Y-18126088D01*
X9675000Y-18126088D01*
X9719108Y-18121744D01*
X9761520Y-18108878D01*
X9800608Y-18087985D01*
X9834868Y-18059868D01*
X9862985Y-18025608D01*
X9883878Y-17986520D01*
X9896744Y-17944108D01*
X9901088Y-17900000D01*
X9901088Y-17100000D01*
X9896744Y-17055892D01*
X9883878Y-17013480D01*
X9862985Y-16974392D01*
X9834868Y-16940132D01*
X9800608Y-16912015D01*
X9761520Y-16891122D01*
X9719108Y-16878256D01*
X9675000Y-16873912D01*
X9609372Y-16873912D01*
X9607794Y-16871551D01*
X9534668Y-16798425D01*
X9448681Y-16740970D01*
X9353137Y-16701395D01*
X9251708Y-16681219D01*
X9148292Y-16681219D01*
X9046863Y-16701395D01*
X8951319Y-16740970D01*
X8865332Y-16798425D01*
X8792206Y-16871551D01*
X8790628Y-16873912D01*
X7675000Y-16873912D01*
X7630892Y-16878256D01*
X7588480Y-16891122D01*
X7549392Y-16912015D01*
X7515132Y-16940132D01*
X7487015Y-16974392D01*
X7466122Y-17013480D01*
X7453256Y-17055892D01*
X7448912Y-17100000D01*
X7448912Y-17150000D01*
X7376088Y-17150000D01*
X7376088Y-17100000D01*
X7371744Y-17055892D01*
X7358878Y-17013480D01*
X7337985Y-16974392D01*
X7309868Y-16940132D01*
X7275608Y-16912015D01*
X7236520Y-16891122D01*
X7194108Y-16878256D01*
X7150000Y-16873912D01*
X5150000Y-16873912D01*
X5105892Y-16878256D01*
X5063480Y-16891122D01*
X5024392Y-16912015D01*
X4990132Y-16940132D01*
X4962015Y-16974392D01*
X4941122Y-17013480D01*
X4928256Y-17055892D01*
X4923912Y-17100000D01*
X275254Y-17100000D01*
X275318Y-15100000D01*
X4923912Y-15100000D01*
X4923912Y-15900000D01*
X4928256Y-15944108D01*
X4941122Y-15986520D01*
X4962015Y-16025608D01*
X4990132Y-16059868D01*
X5024392Y-16087985D01*
X5063480Y-16108878D01*
X5105892Y-16121744D01*
X5150000Y-16126088D01*
X7150000Y-16126088D01*
X7194108Y-16121744D01*
X7236520Y-16108878D01*
X7275608Y-16087985D01*
X7309868Y-16059868D01*
X7337985Y-16025608D01*
X7358878Y-15986520D01*
X7371744Y-15944108D01*
X7376088Y-15900000D01*
X7376088Y-15850000D01*
X7448912Y-15850000D01*
X7448912Y-15900000D01*
X7453256Y-15944108D01*
X7466122Y-15986520D01*
X7487015Y-16025608D01*
X7515132Y-16059868D01*
X7549392Y-16087985D01*
X7588480Y-16108878D01*
X7630892Y-16121744D01*
X7675000Y-16126088D01*
X9675000Y-16126088D01*
X9719108Y-16121744D01*
X9761520Y-16108878D01*
X9800608Y-16087985D01*
X9834868Y-16059868D01*
X9862985Y-16025608D01*
X9883878Y-15986520D01*
X9896744Y-15944108D01*
X9901088Y-15900000D01*
X9901088Y-15100000D01*
X9896744Y-15055892D01*
X9883878Y-15013480D01*
X9862985Y-14974392D01*
X9834868Y-14940132D01*
X9800608Y-14912015D01*
X9761520Y-14891122D01*
X9719108Y-14878256D01*
X9675000Y-14873912D01*
X7675000Y-14873912D01*
X7630892Y-14878256D01*
X7588480Y-14891122D01*
X7549392Y-14912015D01*
X7515132Y-14940132D01*
X7487015Y-14974392D01*
X7466122Y-15013480D01*
X7453256Y-15055892D01*
X7448912Y-15100000D01*
X7448912Y-15150000D01*
X7376088Y-15150000D01*
X7376088Y-15100000D01*
X7371744Y-15055892D01*
X7358878Y-15013480D01*
X7337985Y-14974392D01*
X7309868Y-14940132D01*
X7275608Y-14912015D01*
X7236520Y-14891122D01*
X7194108Y-14878256D01*
X7150000Y-14873912D01*
X5150000Y-14873912D01*
X5105892Y-14878256D01*
X5063480Y-14891122D01*
X5024392Y-14912015D01*
X4990132Y-14940132D01*
X4962015Y-14974392D01*
X4941122Y-15013480D01*
X4928256Y-15055892D01*
X4923912Y-15100000D01*
X275318Y-15100000D01*
X275345Y-14293292D01*
X4210000Y-14293292D01*
X4210000Y-14396708D01*
X4230176Y-14498137D01*
X4269751Y-14593681D01*
X4327206Y-14679668D01*
X4400332Y-14752794D01*
X4486319Y-14810249D01*
X4581863Y-14849824D01*
X4683292Y-14870000D01*
X4786708Y-14870000D01*
X4888137Y-14849824D01*
X4983681Y-14810249D01*
X5069668Y-14752794D01*
X5142794Y-14679668D01*
X5200249Y-14593681D01*
X5239824Y-14498137D01*
X5260000Y-14396708D01*
X5260000Y-14293292D01*
X5251865Y-14252398D01*
X5378176Y-14126088D01*
X7150000Y-14126088D01*
X7194108Y-14121744D01*
X7236520Y-14108878D01*
X7275608Y-14087985D01*
X7309868Y-14059868D01*
X7337985Y-14025608D01*
X7358878Y-13986520D01*
X7371744Y-13944108D01*
X7376088Y-13900000D01*
X7376088Y-13850000D01*
X7448912Y-13850000D01*
X7448912Y-13900000D01*
X7453256Y-13944108D01*
X7466122Y-13986520D01*
X7487015Y-14025608D01*
X7515132Y-14059868D01*
X7549392Y-14087985D01*
X7588480Y-14108878D01*
X7630892Y-14121744D01*
X7675000Y-14126088D01*
X9675000Y-14126088D01*
X9719108Y-14121744D01*
X9761520Y-14108878D01*
X9800608Y-14087985D01*
X9834868Y-14059868D01*
X9862985Y-14025608D01*
X9883878Y-13986520D01*
X9896744Y-13944108D01*
X9901088Y-13900000D01*
X9901088Y-13100000D01*
X9896744Y-13055892D01*
X9883878Y-13013480D01*
X9862985Y-12974392D01*
X9834868Y-12940132D01*
X9800608Y-12912015D01*
X9761520Y-12891122D01*
X9719108Y-12878256D01*
X9675000Y-12873912D01*
X7675000Y-12873912D01*
X7630892Y-12878256D01*
X7588480Y-12891122D01*
X7549392Y-12912015D01*
X7515132Y-12940132D01*
X7487015Y-12974392D01*
X7466122Y-13013480D01*
X7453256Y-13055892D01*
X7448912Y-13100000D01*
X7448912Y-13150000D01*
X7376088Y-13150000D01*
X7376088Y-13100000D01*
X7371744Y-13055892D01*
X7358878Y-13013480D01*
X7337985Y-12974392D01*
X7309868Y-12940132D01*
X7275608Y-12912015D01*
X7236520Y-12891122D01*
X7194108Y-12878256D01*
X7150000Y-12873912D01*
X5150000Y-12873912D01*
X5105892Y-12878256D01*
X5063480Y-12891122D01*
X5024392Y-12912015D01*
X4990132Y-12940132D01*
X4962015Y-12974392D01*
X4941122Y-13013480D01*
X4928256Y-13055892D01*
X4923912Y-13100000D01*
X4923912Y-13731825D01*
X4827602Y-13828135D01*
X4786708Y-13820000D01*
X4683292Y-13820000D01*
X4581863Y-13840176D01*
X4486319Y-13879751D01*
X4400332Y-13937206D01*
X4327206Y-14010332D01*
X4269751Y-14096319D01*
X4230176Y-14191863D01*
X4210000Y-14293292D01*
X275345Y-14293292D01*
X275364Y-13715234D01*
X271385Y-13674828D01*
X255663Y-13622990D01*
X230128Y-13575215D01*
X195765Y-13533340D01*
X153892Y-13498973D01*
X106119Y-13473436D01*
X54281Y-13457710D01*
X372Y-13452399D01*
X-53536Y-13457707D01*
X-105374Y-13473429D01*
X-153149Y-13498964D01*
X-155531Y-13500919D01*
X-366191Y-13619619D01*
X-593063Y-13694211D01*
X-830104Y-13723316D01*
X-1068282Y-13705825D01*
X-1298527Y-13642405D01*
X-1512071Y-13535470D01*
X-1700774Y-13389097D01*
X-1857456Y-13208855D01*
X-1976146Y-13001611D01*
X-2052317Y-12775271D01*
X-2083077Y-12538433D01*
X-2067250Y-12300145D01*
X-2005438Y-12069458D01*
X-1922054Y-11900000D01*
X4923911Y-11900000D01*
X4928255Y-11944108D01*
X4941121Y-11986521D01*
X4962014Y-12025608D01*
X4990131Y-12059869D01*
X5024392Y-12087986D01*
X5063479Y-12108879D01*
X5105892Y-12121745D01*
X5150000Y-12126089D01*
X6068750Y-12125000D01*
X6125000Y-12068750D01*
X6125000Y-11525000D01*
X6175000Y-11525000D01*
X6175000Y-12068750D01*
X6231250Y-12125000D01*
X7150000Y-12126089D01*
X7194108Y-12121745D01*
X7236521Y-12108879D01*
X7275608Y-12087986D01*
X7309869Y-12059869D01*
X7337986Y-12025608D01*
X7358879Y-11986521D01*
X7371745Y-11944108D01*
X7376089Y-11900000D01*
X7448911Y-11900000D01*
X7453255Y-11944108D01*
X7466121Y-11986521D01*
X7487014Y-12025608D01*
X7515131Y-12059869D01*
X7549392Y-12087986D01*
X7588479Y-12108879D01*
X7630892Y-12121745D01*
X7675000Y-12126089D01*
X8593750Y-12125000D01*
X8650000Y-12068750D01*
X8650000Y-11525000D01*
X8700000Y-11525000D01*
X8700000Y-12068750D01*
X8756250Y-12125000D01*
X9675000Y-12126089D01*
X9719108Y-12121745D01*
X9761521Y-12108879D01*
X9800608Y-12087986D01*
X9834869Y-12059869D01*
X9862986Y-12025608D01*
X9883879Y-11986521D01*
X9896745Y-11944108D01*
X9901089Y-11900000D01*
X9900000Y-11581250D01*
X9843750Y-11525000D01*
X8700000Y-11525000D01*
X8650000Y-11525000D01*
X7506250Y-11525000D01*
X7450000Y-11581250D01*
X7448911Y-11900000D01*
X7376089Y-11900000D01*
X7375000Y-11581250D01*
X7318750Y-11525000D01*
X6175000Y-11525000D01*
X6125000Y-11525000D01*
X4981250Y-11525000D01*
X4925000Y-11581250D01*
X4923911Y-11900000D01*
X-1922054Y-11900000D01*
X-1899995Y-11855172D01*
X-1754943Y-11665451D01*
X-1575803Y-11507517D01*
X-1369396Y-11387386D01*
X-1143585Y-11309632D01*
X-906973Y-11277221D01*
X-668573Y-11291385D01*
X-437465Y-11351584D01*
X-214181Y-11459524D01*
X-162613Y-11493269D01*
X-153148Y-11501036D01*
X-105373Y-11526571D01*
X-53535Y-11542293D01*
X373Y-11547601D01*
X54282Y-11542290D01*
X106120Y-11526564D01*
X153893Y-11501027D01*
X195766Y-11466660D01*
X230129Y-11424785D01*
X255664Y-11377010D01*
X271386Y-11325172D01*
X275365Y-11284766D01*
X275360Y-11100000D01*
X4923911Y-11100000D01*
X4925000Y-11418750D01*
X4981250Y-11475000D01*
X6125000Y-11475000D01*
X6125000Y-10931250D01*
X6175000Y-10931250D01*
X6175000Y-11475000D01*
X7318750Y-11475000D01*
X7375000Y-11418750D01*
X7376089Y-11100000D01*
X7448911Y-11100000D01*
X7450000Y-11418750D01*
X7506250Y-11475000D01*
X8650000Y-11475000D01*
X8650000Y-10931250D01*
X8700000Y-10931250D01*
X8700000Y-11475000D01*
X9843750Y-11475000D01*
X9900000Y-11418750D01*
X9901089Y-11100000D01*
X9896745Y-11055892D01*
X9883879Y-11013479D01*
X9862986Y-10974392D01*
X9834869Y-10940131D01*
X9800608Y-10912014D01*
X9761521Y-10891121D01*
X9719108Y-10878255D01*
X9675000Y-10873911D01*
X8756250Y-10875000D01*
X8700000Y-10931250D01*
X8650000Y-10931250D01*
X8593750Y-10875000D01*
X7675000Y-10873911D01*
X7630892Y-10878255D01*
X7588479Y-10891121D01*
X7549392Y-10912014D01*
X7515131Y-10940131D01*
X7487014Y-10974392D01*
X7466121Y-11013479D01*
X7453255Y-11055892D01*
X7448911Y-11100000D01*
X7376089Y-11100000D01*
X7371745Y-11055892D01*
X7358879Y-11013479D01*
X7337986Y-10974392D01*
X7309869Y-10940131D01*
X7275608Y-10912014D01*
X7236521Y-10891121D01*
X7194108Y-10878255D01*
X7150000Y-10873911D01*
X6231250Y-10875000D01*
X6175000Y-10931250D01*
X6125000Y-10931250D01*
X6068750Y-10875000D01*
X5150000Y-10873911D01*
X5105892Y-10878255D01*
X5063479Y-10891121D01*
X5024392Y-10912014D01*
X4990131Y-10940131D01*
X4962014Y-10974392D01*
X4941121Y-11013479D01*
X4928255Y-11055892D01*
X4923911Y-11100000D01*
X275360Y-11100000D01*
X275335Y-10338292D01*
X4115000Y-10338292D01*
X4115000Y-10441708D01*
X4135176Y-10543137D01*
X4174751Y-10638681D01*
X4232206Y-10724668D01*
X4305332Y-10797794D01*
X4391319Y-10855249D01*
X4486863Y-10894824D01*
X4588292Y-10915000D01*
X4691708Y-10915000D01*
X4793137Y-10894824D01*
X4888681Y-10855249D01*
X4974668Y-10797794D01*
X5047794Y-10724668D01*
X5105249Y-10638681D01*
X5144824Y-10543137D01*
X5165000Y-10441708D01*
X5165000Y-10338292D01*
X5156865Y-10297398D01*
X5328176Y-10126088D01*
X7150000Y-10126088D01*
X7194108Y-10121744D01*
X7236520Y-10108878D01*
X7275608Y-10087985D01*
X7309868Y-10059868D01*
X7337985Y-10025608D01*
X7358878Y-9986520D01*
X7371744Y-9944108D01*
X7376088Y-9900000D01*
X7376088Y-9850000D01*
X7448912Y-9850000D01*
X7448912Y-9900000D01*
X7453256Y-9944108D01*
X7466122Y-9986520D01*
X7487015Y-10025608D01*
X7515132Y-10059868D01*
X7549392Y-10087985D01*
X7588480Y-10108878D01*
X7630892Y-10121744D01*
X7675000Y-10126088D01*
X9675000Y-10126088D01*
X9719108Y-10121744D01*
X9761520Y-10108878D01*
X9800608Y-10087985D01*
X9834868Y-10059868D01*
X9862985Y-10025608D01*
X9883878Y-9986520D01*
X9896744Y-9944108D01*
X9901088Y-9900000D01*
X9901088Y-9100000D01*
X9896744Y-9055892D01*
X9883878Y-9013480D01*
X9862985Y-8974392D01*
X9834868Y-8940132D01*
X9800608Y-8912015D01*
X9761520Y-8891122D01*
X9719108Y-8878256D01*
X9675000Y-8873912D01*
X7675000Y-8873912D01*
X7630892Y-8878256D01*
X7588480Y-8891122D01*
X7549392Y-8912015D01*
X7515132Y-8940132D01*
X7487015Y-8974392D01*
X7466122Y-9013480D01*
X7453256Y-9055892D01*
X7448912Y-9100000D01*
X7448912Y-9150000D01*
X7376088Y-9150000D01*
X7376088Y-9100000D01*
X7371744Y-9055892D01*
X7358878Y-9013480D01*
X7337985Y-8974392D01*
X7309868Y-8940132D01*
X7275608Y-8912015D01*
X7236520Y-8891122D01*
X7194108Y-8878256D01*
X7150000Y-8873912D01*
X5150000Y-8873912D01*
X5105892Y-8878256D01*
X5063480Y-8891122D01*
X5024392Y-8912015D01*
X4990132Y-8940132D01*
X4962015Y-8974392D01*
X4941122Y-9013480D01*
X4928256Y-9055892D01*
X4923912Y-9100000D01*
X4923912Y-9681824D01*
X4732602Y-9873135D01*
X4691708Y-9865000D01*
X4588292Y-9865000D01*
X4486863Y-9885176D01*
X4391319Y-9924751D01*
X4305332Y-9982206D01*
X4232206Y-10055332D01*
X4174751Y-10141319D01*
X4135176Y-10236863D01*
X4115000Y-10338292D01*
X275335Y-10338292D01*
X275230Y-7100000D01*
X4923912Y-7100000D01*
X4923912Y-7900000D01*
X4928256Y-7944108D01*
X4941122Y-7986520D01*
X4962015Y-8025608D01*
X4990132Y-8059868D01*
X5024392Y-8087985D01*
X5063480Y-8108878D01*
X5105892Y-8121744D01*
X5150000Y-8126088D01*
X7150000Y-8126088D01*
X7194108Y-8121744D01*
X7236520Y-8108878D01*
X7275608Y-8087985D01*
X7309868Y-8059868D01*
X7337985Y-8025608D01*
X7358878Y-7986520D01*
X7371744Y-7944108D01*
X7376088Y-7900000D01*
X7376088Y-7850000D01*
X7448912Y-7850000D01*
X7448912Y-7900000D01*
X7453256Y-7944108D01*
X7466122Y-7986520D01*
X7487015Y-8025608D01*
X7515132Y-8059868D01*
X7549392Y-8087985D01*
X7588480Y-8108878D01*
X7630892Y-8121744D01*
X7675000Y-8126088D01*
X9675000Y-8126088D01*
X9719108Y-8121744D01*
X9761520Y-8108878D01*
X9800608Y-8087985D01*
X9834868Y-8059868D01*
X9862985Y-8025608D01*
X9883878Y-7986520D01*
X9896744Y-7944108D01*
X9901088Y-7900000D01*
X9901088Y-7100000D01*
X9896744Y-7055892D01*
X9883878Y-7013480D01*
X9862985Y-6974392D01*
X9834868Y-6940132D01*
X9800608Y-6912015D01*
X9761520Y-6891122D01*
X9719108Y-6878256D01*
X9675000Y-6873912D01*
X7675000Y-6873912D01*
X7630892Y-6878256D01*
X7588480Y-6891122D01*
X7549392Y-6912015D01*
X7515132Y-6940132D01*
X7487015Y-6974392D01*
X7466122Y-7013480D01*
X7453256Y-7055892D01*
X7448912Y-7100000D01*
X7448912Y-7150000D01*
X7376088Y-7150000D01*
X7376088Y-7100000D01*
X7371744Y-7055892D01*
X7358878Y-7013480D01*
X7337985Y-6974392D01*
X7309868Y-6940132D01*
X7275608Y-6912015D01*
X7236520Y-6891122D01*
X7194108Y-6878256D01*
X7150000Y-6873912D01*
X5150000Y-6873912D01*
X5105892Y-6878256D01*
X5063480Y-6891122D01*
X5024392Y-6912015D01*
X4990132Y-6940132D01*
X4962015Y-6974392D01*
X4941122Y-7013480D01*
X4928256Y-7055892D01*
X4923912Y-7100000D01*
X275230Y-7100000D01*
X275008Y-275000D01*
X11047216Y-275000D01*
X10806170Y-436062D01*
G37*
G04 #@! TD.AperFunction*
M02*
