G04 #@! TF.GenerationSoftware,KiCad,Pcbnew,5.1.10-88a1d61d58~90~ubuntu20.04.1*
G04 #@! TF.CreationDate,2021-10-26T15:29:24+01:00*
G04 #@! TF.ProjectId,IMU,494d552e-6b69-4636-9164-5f7063625858,rev?*
G04 #@! TF.SameCoordinates,Original*
G04 #@! TF.FileFunction,Legend,Bot*
G04 #@! TF.FilePolarity,Positive*
%FSLAX46Y46*%
G04 Gerber Fmt 4.6, Leading zero omitted, Abs format (unit mm)*
G04 Created by KiCad (PCBNEW 5.1.10-88a1d61d58~90~ubuntu20.04.1) date 2021-10-26 15:29:24*
%MOMM*%
%LPD*%
G01*
G04 APERTURE LIST*
%ADD10C,0.120000*%
%ADD11C,0.010000*%
%ADD12R,2.000000X0.800000*%
%ADD13C,2.700000*%
G04 APERTURE END LIST*
D10*
X1900000Y-18500000D02*
X1900000Y-6500000D01*
X1900000Y-18500000D02*
X3900000Y-18500000D01*
X3900000Y-18500000D02*
X3900000Y-6500000D01*
X1900000Y-6500000D02*
X3900000Y-6500000D01*
X10887700Y-18650000D02*
X10887700Y-6350000D01*
X17237700Y-6350000D02*
X10887700Y-6350000D01*
X17237700Y-6350000D02*
X17237700Y-18650000D01*
X17237700Y-18650000D02*
X10887700Y-18650000D01*
D11*
G36*
X7050300Y-25001900D02*
G01*
X14949700Y-25001900D01*
X14949700Y-24499600D01*
X14441700Y-24499600D01*
X14441700Y-24499605D01*
X14429414Y-24501016D01*
X14394208Y-24502332D01*
X14338562Y-24503523D01*
X14264957Y-24504561D01*
X14175874Y-24505417D01*
X14073792Y-24506062D01*
X13961192Y-24506465D01*
X13844880Y-24506600D01*
X13248060Y-24506600D01*
X13213055Y-24457654D01*
X13201143Y-24440389D01*
X13176061Y-24403548D01*
X13138821Y-24348628D01*
X13090433Y-24277127D01*
X13031909Y-24190542D01*
X12964259Y-24090370D01*
X12888495Y-23978109D01*
X12805627Y-23855256D01*
X12716667Y-23723308D01*
X12622625Y-23583763D01*
X12524513Y-23438117D01*
X12466850Y-23352492D01*
X11755650Y-22296275D01*
X11752406Y-23401585D01*
X11749161Y-24506894D01*
X11250756Y-24503572D01*
X10752350Y-24500250D01*
X10752350Y-20499750D01*
X11249366Y-20496428D01*
X11702532Y-20493400D01*
X10250700Y-20493400D01*
X10250700Y-22495766D01*
X10250669Y-22719080D01*
X10250575Y-22935337D01*
X10250423Y-23143187D01*
X10250216Y-23341280D01*
X10249958Y-23528268D01*
X10249653Y-23702801D01*
X10249303Y-23863530D01*
X10248912Y-24009105D01*
X10248484Y-24138177D01*
X10248022Y-24249397D01*
X10247529Y-24341415D01*
X10247010Y-24412883D01*
X10246467Y-24462450D01*
X10245904Y-24488767D01*
X10245562Y-24492841D01*
X10237786Y-24481692D01*
X10216971Y-24451178D01*
X10184270Y-24403003D01*
X10140833Y-24338868D01*
X10087812Y-24260476D01*
X10026357Y-24169531D01*
X9957619Y-24067733D01*
X9882751Y-23956787D01*
X9802903Y-23838395D01*
X9743953Y-23750950D01*
X9247484Y-23014350D01*
X9247400Y-21496700D01*
X8735785Y-21496699D01*
X8224170Y-21496699D01*
X7891235Y-21001848D01*
X7823981Y-20901746D01*
X7761273Y-20808139D01*
X7704502Y-20723123D01*
X7655056Y-20648789D01*
X7614325Y-20587232D01*
X7583698Y-20540545D01*
X7564565Y-20510822D01*
X7558300Y-20500198D01*
X7570725Y-20499276D01*
X7606899Y-20498391D01*
X7665169Y-20497551D01*
X7743885Y-20496764D01*
X7841395Y-20496040D01*
X7956048Y-20495385D01*
X8086191Y-20494809D01*
X8230175Y-20494320D01*
X8386347Y-20493926D01*
X8553056Y-20493636D01*
X8728650Y-20493458D01*
X8904500Y-20493400D01*
X10250700Y-20493400D01*
X11702532Y-20493400D01*
X11746382Y-20493107D01*
X13094041Y-22492859D01*
X13231271Y-22696526D01*
X13364655Y-22894557D01*
X13493502Y-23085922D01*
X13617123Y-23269595D01*
X13734827Y-23444549D01*
X13845925Y-23609754D01*
X13949725Y-23764184D01*
X14045539Y-23906811D01*
X14132675Y-24036607D01*
X14210445Y-24152545D01*
X14278156Y-24253597D01*
X14335121Y-24338735D01*
X14380647Y-24406932D01*
X14414046Y-24457161D01*
X14434627Y-24488392D01*
X14441700Y-24499600D01*
X14949700Y-24499600D01*
X14949700Y-19998100D01*
X7050300Y-19998100D01*
X7050300Y-25001900D01*
G37*
X7050300Y-25001900D02*
X14949700Y-25001900D01*
X14949700Y-24499600D01*
X14441700Y-24499600D01*
X14441700Y-24499605D01*
X14429414Y-24501016D01*
X14394208Y-24502332D01*
X14338562Y-24503523D01*
X14264957Y-24504561D01*
X14175874Y-24505417D01*
X14073792Y-24506062D01*
X13961192Y-24506465D01*
X13844880Y-24506600D01*
X13248060Y-24506600D01*
X13213055Y-24457654D01*
X13201143Y-24440389D01*
X13176061Y-24403548D01*
X13138821Y-24348628D01*
X13090433Y-24277127D01*
X13031909Y-24190542D01*
X12964259Y-24090370D01*
X12888495Y-23978109D01*
X12805627Y-23855256D01*
X12716667Y-23723308D01*
X12622625Y-23583763D01*
X12524513Y-23438117D01*
X12466850Y-23352492D01*
X11755650Y-22296275D01*
X11752406Y-23401585D01*
X11749161Y-24506894D01*
X11250756Y-24503572D01*
X10752350Y-24500250D01*
X10752350Y-20499750D01*
X11249366Y-20496428D01*
X11702532Y-20493400D01*
X10250700Y-20493400D01*
X10250700Y-22495766D01*
X10250669Y-22719080D01*
X10250575Y-22935337D01*
X10250423Y-23143187D01*
X10250216Y-23341280D01*
X10249958Y-23528268D01*
X10249653Y-23702801D01*
X10249303Y-23863530D01*
X10248912Y-24009105D01*
X10248484Y-24138177D01*
X10248022Y-24249397D01*
X10247529Y-24341415D01*
X10247010Y-24412883D01*
X10246467Y-24462450D01*
X10245904Y-24488767D01*
X10245562Y-24492841D01*
X10237786Y-24481692D01*
X10216971Y-24451178D01*
X10184270Y-24403003D01*
X10140833Y-24338868D01*
X10087812Y-24260476D01*
X10026357Y-24169531D01*
X9957619Y-24067733D01*
X9882751Y-23956787D01*
X9802903Y-23838395D01*
X9743953Y-23750950D01*
X9247484Y-23014350D01*
X9247400Y-21496700D01*
X8735785Y-21496699D01*
X8224170Y-21496699D01*
X7891235Y-21001848D01*
X7823981Y-20901746D01*
X7761273Y-20808139D01*
X7704502Y-20723123D01*
X7655056Y-20648789D01*
X7614325Y-20587232D01*
X7583698Y-20540545D01*
X7564565Y-20510822D01*
X7558300Y-20500198D01*
X7570725Y-20499276D01*
X7606899Y-20498391D01*
X7665169Y-20497551D01*
X7743885Y-20496764D01*
X7841395Y-20496040D01*
X7956048Y-20495385D01*
X8086191Y-20494809D01*
X8230175Y-20494320D01*
X8386347Y-20493926D01*
X8553056Y-20493636D01*
X8728650Y-20493458D01*
X8904500Y-20493400D01*
X10250700Y-20493400D01*
X11702532Y-20493400D01*
X11746382Y-20493107D01*
X13094041Y-22492859D01*
X13231271Y-22696526D01*
X13364655Y-22894557D01*
X13493502Y-23085922D01*
X13617123Y-23269595D01*
X13734827Y-23444549D01*
X13845925Y-23609754D01*
X13949725Y-23764184D01*
X14045539Y-23906811D01*
X14132675Y-24036607D01*
X14210445Y-24152545D01*
X14278156Y-24253597D01*
X14335121Y-24338735D01*
X14380647Y-24406932D01*
X14414046Y-24457161D01*
X14434627Y-24488392D01*
X14441700Y-24499600D01*
X14949700Y-24499600D01*
X14949700Y-19998100D01*
X7050300Y-19998100D01*
X7050300Y-25001900D01*
%LPC*%
D12*
X6150000Y-7500000D03*
X6150000Y-9500000D03*
X6150000Y-11500000D03*
X6150000Y-13500000D03*
X6150000Y-15500000D03*
X6150000Y-17500000D03*
X8675000Y-17500000D03*
X8675000Y-15500000D03*
X8675000Y-13500000D03*
X8675000Y-11500000D03*
X8675000Y-9500000D03*
X8675000Y-7500000D03*
D13*
X2500000Y-22500000D03*
X12500000Y-2500000D03*
M02*
