M48
; DRILL file {KiCad 5.1.10-88a1d61d58~90~ubuntu20.04.1} date Tue Oct 26 15:29:22 2021
; FORMAT={-:-/ absolute / metric / decimal}
; #@! TF.CreationDate,2021-10-26T15:29:22+01:00
; #@! TF.GenerationSoftware,Kicad,Pcbnew,5.1.10-88a1d61d58~90~ubuntu20.04.1
; #@! TF.FileFunction,Plated,1,2,PTH
FMAT,2
METRIC
T1C0.300
%
G90
G05
T1
X0.99Y-5.64
X1.13Y-9.59
X1.46Y-2.53
X2.251Y-17.593
X2.5Y-9.66
X2.6Y-12.37
X2.65Y-0.75
X2.66Y-4.76
X3.42Y-7.79
X4.36Y-16.52
X4.64Y-10.39
X4.735Y-14.345
X5.151Y-24.249
X5.33Y-5.49
X6.01Y-14.55
X6.03Y-16.38
X7.37Y-8.58
X7.62Y-0.762
X7.86Y-20.28
X7.87Y-19.44
X8.53Y-14.55
X8.54Y-3.05
X8.675Y-15.5
X8.68Y-5.83
X9.11Y-24.03
X9.19Y-10.49
X9.2Y-17.206
X9.54Y-16.46
X10.07Y-20.94
X10.11Y-19.65
X10.378Y-14.86
X11.36Y-20.37
X11.405Y-17.612
X12.11Y-15.24
X12.26Y-9.92
X12.34Y-6.29
X12.74Y-23.97
X14.207Y-22.085
T0
M30
