G04 #@! TF.GenerationSoftware,KiCad,Pcbnew,5.1.10-88a1d61d58~90~ubuntu20.04.1*
G04 #@! TF.CreationDate,2021-10-26T15:32:18+01:00*
G04 #@! TF.ProjectId,THP,5448502e-6b69-4636-9164-5f7063625858,rev?*
G04 #@! TF.SameCoordinates,Original*
G04 #@! TF.FileFunction,Copper,L2,Bot*
G04 #@! TF.FilePolarity,Positive*
%FSLAX46Y46*%
G04 Gerber Fmt 4.6, Leading zero omitted, Abs format (unit mm)*
G04 Created by KiCad (PCBNEW 5.1.10-88a1d61d58~90~ubuntu20.04.1) date 2021-10-26 15:32:18*
%MOMM*%
%LPD*%
G01*
G04 APERTURE LIST*
G04 #@! TA.AperFunction,EtchedComponent*
%ADD10C,0.050000*%
G04 #@! TD*
G04 #@! TA.AperFunction,SMDPad,CuDef*
%ADD11R,2.000000X0.800000*%
G04 #@! TD*
G04 #@! TA.AperFunction,SMDPad,CuDef*
%ADD12R,0.650000X1.060000*%
G04 #@! TD*
G04 #@! TA.AperFunction,ViaPad*
%ADD13C,0.600000*%
G04 #@! TD*
G04 #@! TA.AperFunction,Conductor*
%ADD14C,0.150000*%
G04 #@! TD*
G04 #@! TA.AperFunction,Conductor*
%ADD15C,0.250000*%
G04 #@! TD*
G04 #@! TA.AperFunction,Conductor*
%ADD16C,0.400000*%
G04 #@! TD*
G04 #@! TA.AperFunction,Conductor*
%ADD17C,0.100000*%
G04 #@! TD*
G04 APERTURE END LIST*
D10*
X4900000Y-22500000D02*
G75*
G03*
X4900000Y-22500000I-2400000J0D01*
G01*
X14900000Y-2500000D02*
G75*
G03*
X14900000Y-2500000I-2400000J0D01*
G01*
D11*
X6150000Y-7500000D03*
X6150000Y-9500000D03*
X6150000Y-11500000D03*
X6150000Y-13500000D03*
X6150000Y-15500000D03*
X6150000Y-17500000D03*
D12*
X11525000Y-23775000D03*
X13425000Y-23775000D03*
X13425000Y-21575000D03*
X12475000Y-21575000D03*
X11525000Y-21575000D03*
D11*
X8675000Y-17500000D03*
X8675000Y-15500000D03*
X8675000Y-13500000D03*
X8675000Y-11500000D03*
X8675000Y-9500000D03*
X8675000Y-7500000D03*
G04 #@! TA.AperFunction,SMDPad,CuDef*
G36*
G01*
X12920000Y-20002500D02*
X12920000Y-20347500D01*
G75*
G02*
X12772500Y-20495000I-147500J0D01*
G01*
X12477500Y-20495000D01*
G75*
G02*
X12330000Y-20347500I0J147500D01*
G01*
X12330000Y-20002500D01*
G75*
G02*
X12477500Y-19855000I147500J0D01*
G01*
X12772500Y-19855000D01*
G75*
G02*
X12920000Y-20002500I0J-147500D01*
G01*
G37*
G04 #@! TD.AperFunction*
G04 #@! TA.AperFunction,SMDPad,CuDef*
G36*
G01*
X13890000Y-20002500D02*
X13890000Y-20347500D01*
G75*
G02*
X13742500Y-20495000I-147500J0D01*
G01*
X13447500Y-20495000D01*
G75*
G02*
X13300000Y-20347500I0J147500D01*
G01*
X13300000Y-20002500D01*
G75*
G02*
X13447500Y-19855000I147500J0D01*
G01*
X13742500Y-19855000D01*
G75*
G02*
X13890000Y-20002500I0J-147500D01*
G01*
G37*
G04 #@! TD.AperFunction*
G04 #@! TA.AperFunction,SMDPad,CuDef*
G36*
G01*
X10272500Y-23010000D02*
X9927500Y-23010000D01*
G75*
G02*
X9780000Y-22862500I0J147500D01*
G01*
X9780000Y-22567500D01*
G75*
G02*
X9927500Y-22420000I147500J0D01*
G01*
X10272500Y-22420000D01*
G75*
G02*
X10420000Y-22567500I0J-147500D01*
G01*
X10420000Y-22862500D01*
G75*
G02*
X10272500Y-23010000I-147500J0D01*
G01*
G37*
G04 #@! TD.AperFunction*
G04 #@! TA.AperFunction,SMDPad,CuDef*
G36*
G01*
X10272500Y-23980000D02*
X9927500Y-23980000D01*
G75*
G02*
X9780000Y-23832500I0J147500D01*
G01*
X9780000Y-23537500D01*
G75*
G02*
X9927500Y-23390000I147500J0D01*
G01*
X10272500Y-23390000D01*
G75*
G02*
X10420000Y-23537500I0J-147500D01*
G01*
X10420000Y-23832500D01*
G75*
G02*
X10272500Y-23980000I-147500J0D01*
G01*
G37*
G04 #@! TD.AperFunction*
D13*
X8990000Y-24140000D03*
X14150000Y-15750000D03*
X5740000Y-24210000D03*
X7390000Y-24170000D03*
X8240000Y-22920000D03*
X9240000Y-21750000D03*
X8250000Y-20680000D03*
X10130000Y-20740000D03*
X8230000Y-19240000D03*
X7430000Y-16580000D03*
X13010000Y-15280000D03*
X3080000Y-770000D03*
X8620000Y-1260000D03*
X5230000Y-1960000D03*
X5250000Y-3090000D03*
X2575000Y-19375000D03*
X4980000Y-20550000D03*
X13950000Y-22775000D03*
X950000Y-16490000D03*
X8800000Y-16490000D03*
X7250000Y-4290000D03*
X5670000Y-4310000D03*
X4330000Y-4300000D03*
X3410000Y-3340000D03*
X4990000Y-5410000D03*
X6610000Y-5370000D03*
X11160000Y-7580000D03*
X13060000Y-7610000D03*
X9070000Y-2420000D03*
X5610000Y-8520000D03*
X8620000Y-8550000D03*
X5720000Y-2510000D03*
X5710000Y-1330000D03*
X8460000Y-14580000D03*
X860000Y-2240000D03*
X11810000Y-16160000D03*
X12470000Y-23980000D03*
X10200000Y-10080000D03*
X4460000Y-7040000D03*
X8830000Y-5330000D03*
X11430000Y-23876000D03*
X10679597Y-14722939D03*
X3820000Y-14230000D03*
X800377Y-6970000D03*
X1850378Y-7000000D03*
X11684000Y-17272000D03*
X11176000Y-15494000D03*
X11217565Y-18433163D03*
X3040000Y-16430000D03*
D14*
X13425000Y-21885002D02*
X13425000Y-21575000D01*
X12980001Y-22330001D02*
X13425000Y-21885002D01*
X11525000Y-22255000D02*
X11600001Y-22330001D01*
X11600001Y-22330001D02*
X12980001Y-22330001D01*
X11525000Y-21575000D02*
X11525000Y-22255000D01*
X13595000Y-17520000D02*
X13595000Y-18080000D01*
D15*
X13425000Y-20345000D02*
X13595000Y-20175000D01*
X13425000Y-21575000D02*
X13425000Y-20345000D01*
X13595000Y-20175000D02*
X13595000Y-17520000D01*
X6150000Y-9500000D02*
X8675000Y-9500000D01*
D14*
X12406640Y-16331640D02*
X13595000Y-17520000D01*
X12406640Y-15166640D02*
X12406640Y-16331640D01*
X11874516Y-14634516D02*
X12406640Y-15166640D01*
X11874516Y-10899516D02*
X11874516Y-14634516D01*
X10475000Y-9500000D02*
X11874516Y-10899516D01*
X9325000Y-9500000D02*
X10475000Y-9500000D01*
D15*
X14650000Y-15250000D02*
X14150000Y-15750000D01*
D16*
X5600000Y-11500000D02*
X5600000Y-11500000D01*
D14*
X8990000Y-24140000D02*
X9571955Y-24721955D01*
X9571955Y-24721955D02*
X9849147Y-24721955D01*
X9849147Y-24721955D02*
X14719373Y-24720455D01*
X14719373Y-24720455D02*
X14719609Y-24099932D01*
D15*
X12475000Y-20325000D02*
X12625000Y-20175000D01*
X12475000Y-21575000D02*
X12475000Y-20325000D01*
D14*
X14650000Y-16110000D02*
X14706896Y-16166896D01*
X14706896Y-16166896D02*
X14718013Y-24099935D01*
X14650000Y-15250000D02*
X14650000Y-16110000D01*
D15*
X6150000Y-11500000D02*
X8675000Y-11500000D01*
D14*
X500000Y-15590000D02*
X500000Y-15590000D01*
X5217002Y-16580000D02*
X7430000Y-16580000D01*
X4542001Y-15904999D02*
X5217002Y-16580000D01*
X1535001Y-15904999D02*
X4542001Y-15904999D01*
X950000Y-16490000D02*
X1535001Y-15904999D01*
X950000Y-16490000D02*
X950000Y-15990000D01*
X950000Y-15990000D02*
X550000Y-15590000D01*
X550000Y-15590000D02*
X500000Y-15590000D01*
D15*
X6150000Y-11500000D02*
X6150000Y-10590000D01*
X5735001Y-10175001D02*
X4605001Y-10175001D01*
X6150000Y-10590000D02*
X5735001Y-10175001D01*
X4377536Y-9947536D02*
X1202464Y-9947536D01*
X4605001Y-10175001D02*
X4377536Y-9947536D01*
D14*
X500000Y-14570000D02*
X500000Y-15590000D01*
D15*
X485000Y-9905000D02*
X1175000Y-9905000D01*
X325351Y-10575351D02*
X325351Y-10064649D01*
X325378Y-10575378D02*
X325351Y-10575351D01*
X325377Y-13594116D02*
X325378Y-10575378D01*
X325351Y-14405350D02*
X325377Y-13594116D01*
X325351Y-10064649D02*
X485000Y-9905000D01*
X490000Y-14570000D02*
X325351Y-14405350D01*
X500000Y-14570000D02*
X490000Y-14570000D01*
D14*
X13010000Y-14751444D02*
X13010000Y-15280000D01*
X12220639Y-13962083D02*
X13010000Y-14751444D01*
X12220639Y-8449361D02*
X12220639Y-13962083D01*
X13060000Y-7610000D02*
X12220639Y-8449361D01*
D15*
X8675000Y-11500000D02*
X8675000Y-10635000D01*
X8675000Y-10635000D02*
X9100000Y-10210000D01*
X10070000Y-10210000D02*
X10200000Y-10080000D01*
X9100000Y-10210000D02*
X10070000Y-10210000D01*
X10245000Y-23540000D02*
X10100000Y-23685000D01*
X11470000Y-23540000D02*
X10245000Y-23540000D01*
D14*
X11470000Y-23836000D02*
X11430000Y-23876000D01*
X11470000Y-23540000D02*
X11470000Y-23836000D01*
D15*
X6150000Y-7500000D02*
X8675000Y-7500000D01*
D14*
X9456658Y-13500000D02*
X9325000Y-13500000D01*
X10679597Y-14722939D02*
X9456658Y-13500000D01*
D15*
X7080000Y-13500000D02*
X8675000Y-13500000D01*
X6150000Y-13500000D02*
X7080000Y-13500000D01*
D14*
X4550000Y-13500000D02*
X6150000Y-13500000D01*
X3820000Y-14230000D02*
X4550000Y-13500000D01*
X1820378Y-6970000D02*
X1850378Y-7000000D01*
X800377Y-6970000D02*
X1820378Y-6970000D01*
D15*
X6150000Y-17500000D02*
X8675000Y-17500000D01*
D14*
X9825000Y-17500000D02*
X10149991Y-17824991D01*
X8675000Y-17500000D02*
X9825000Y-17500000D01*
X11131009Y-17824991D02*
X11684000Y-17272000D01*
X10149991Y-17824991D02*
X11131009Y-17824991D01*
X11170000Y-15500000D02*
X11176000Y-15494000D01*
X9325000Y-15500000D02*
X11170000Y-15500000D01*
D15*
X6150000Y-15500000D02*
X8675000Y-15500000D01*
D14*
X4735001Y-18125001D02*
X10909403Y-18125001D01*
X10909403Y-18125001D02*
X11217565Y-18433163D01*
X3040000Y-16430000D02*
X4735001Y-18125001D01*
X13705187Y-14634035D02*
X13728654Y-14642462D01*
X13751983Y-14651208D01*
X13755696Y-14652172D01*
X13755699Y-14652173D01*
X13755701Y-14652173D01*
X14134828Y-14747772D01*
X14159462Y-14751477D01*
X14184068Y-14755529D01*
X14187900Y-14755754D01*
X14187902Y-14755754D01*
X14578377Y-14775893D01*
X14603267Y-14774742D01*
X14628185Y-14773938D01*
X14631990Y-14773414D01*
X14704938Y-14762840D01*
X14718892Y-24720463D01*
X3954607Y-24723782D01*
X4193830Y-24563938D01*
X4563938Y-24193830D01*
X4854730Y-23758629D01*
X5055031Y-23275060D01*
X5107754Y-23010000D01*
X9553911Y-23010000D01*
X9558255Y-23054108D01*
X9571121Y-23096521D01*
X9592014Y-23135608D01*
X9620131Y-23169869D01*
X9654392Y-23197986D01*
X9693479Y-23218879D01*
X9719915Y-23226898D01*
X9663333Y-23273333D01*
X9616873Y-23329946D01*
X9582350Y-23394534D01*
X9561090Y-23464617D01*
X9553912Y-23537500D01*
X9553912Y-23832500D01*
X9561090Y-23905383D01*
X9582350Y-23975466D01*
X9616873Y-24040054D01*
X9663333Y-24096667D01*
X9719946Y-24143127D01*
X9784534Y-24177650D01*
X9854617Y-24198910D01*
X9927500Y-24206088D01*
X10272500Y-24206088D01*
X10345383Y-24198910D01*
X10415466Y-24177650D01*
X10480054Y-24143127D01*
X10536667Y-24096667D01*
X10583127Y-24040054D01*
X10617650Y-23975466D01*
X10638910Y-23905383D01*
X10640425Y-23890000D01*
X10905000Y-23890000D01*
X10905000Y-23927708D01*
X10925176Y-24029137D01*
X10964751Y-24124681D01*
X10973912Y-24138391D01*
X10973912Y-24305000D01*
X10978256Y-24349108D01*
X10991122Y-24391520D01*
X11012015Y-24430608D01*
X11040132Y-24464868D01*
X11074392Y-24492985D01*
X11113480Y-24513878D01*
X11155892Y-24526744D01*
X11200000Y-24531088D01*
X11850000Y-24531088D01*
X11894108Y-24526744D01*
X11936520Y-24513878D01*
X11975608Y-24492985D01*
X12009868Y-24464868D01*
X12037985Y-24430608D01*
X12058878Y-24391520D01*
X12071744Y-24349108D01*
X12076088Y-24305000D01*
X12076088Y-23245000D01*
X12873912Y-23245000D01*
X12873912Y-24305000D01*
X12878256Y-24349108D01*
X12891122Y-24391520D01*
X12912015Y-24430608D01*
X12940132Y-24464868D01*
X12974392Y-24492985D01*
X13013480Y-24513878D01*
X13055892Y-24526744D01*
X13100000Y-24531088D01*
X13750000Y-24531088D01*
X13794108Y-24526744D01*
X13836520Y-24513878D01*
X13875608Y-24492985D01*
X13909868Y-24464868D01*
X13937985Y-24430608D01*
X13958878Y-24391520D01*
X13971744Y-24349108D01*
X13976088Y-24305000D01*
X13976088Y-23245000D01*
X13971744Y-23200892D01*
X13958878Y-23158480D01*
X13937985Y-23119392D01*
X13909868Y-23085132D01*
X13875608Y-23057015D01*
X13836520Y-23036122D01*
X13794108Y-23023256D01*
X13750000Y-23018912D01*
X13100000Y-23018912D01*
X13055892Y-23023256D01*
X13013480Y-23036122D01*
X12974392Y-23057015D01*
X12940132Y-23085132D01*
X12912015Y-23119392D01*
X12891122Y-23158480D01*
X12878256Y-23200892D01*
X12873912Y-23245000D01*
X12076088Y-23245000D01*
X12071744Y-23200892D01*
X12058878Y-23158480D01*
X12037985Y-23119392D01*
X12009868Y-23085132D01*
X11975608Y-23057015D01*
X11936520Y-23036122D01*
X11894108Y-23023256D01*
X11850000Y-23018912D01*
X11200000Y-23018912D01*
X11155892Y-23023256D01*
X11113480Y-23036122D01*
X11074392Y-23057015D01*
X11040132Y-23085132D01*
X11012015Y-23119392D01*
X10991122Y-23158480D01*
X10981560Y-23190000D01*
X10555339Y-23190000D01*
X10579869Y-23169869D01*
X10607986Y-23135608D01*
X10628879Y-23096521D01*
X10641745Y-23054108D01*
X10646089Y-23010000D01*
X10645000Y-22796250D01*
X10588750Y-22740000D01*
X10125000Y-22740000D01*
X10125000Y-22760000D01*
X10075000Y-22760000D01*
X10075000Y-22740000D01*
X9611250Y-22740000D01*
X9555000Y-22796250D01*
X9553911Y-23010000D01*
X5107754Y-23010000D01*
X5157143Y-22761706D01*
X5157143Y-22420000D01*
X9553911Y-22420000D01*
X9555000Y-22633750D01*
X9611250Y-22690000D01*
X10075000Y-22690000D01*
X10075000Y-22251250D01*
X10125000Y-22251250D01*
X10125000Y-22690000D01*
X10588750Y-22690000D01*
X10645000Y-22633750D01*
X10646089Y-22420000D01*
X10641745Y-22375892D01*
X10628879Y-22333479D01*
X10607986Y-22294392D01*
X10579869Y-22260131D01*
X10545608Y-22232014D01*
X10506521Y-22211121D01*
X10464108Y-22198255D01*
X10420000Y-22193911D01*
X10181250Y-22195000D01*
X10125000Y-22251250D01*
X10075000Y-22251250D01*
X10018750Y-22195000D01*
X9780000Y-22193911D01*
X9735892Y-22198255D01*
X9693479Y-22211121D01*
X9654392Y-22232014D01*
X9620131Y-22260131D01*
X9592014Y-22294392D01*
X9571121Y-22333479D01*
X9558255Y-22375892D01*
X9553911Y-22420000D01*
X5157143Y-22420000D01*
X5157143Y-22238294D01*
X5055031Y-21724940D01*
X4854730Y-21241371D01*
X4563938Y-20806170D01*
X4252768Y-20495000D01*
X12103911Y-20495000D01*
X12108255Y-20539108D01*
X12121121Y-20581521D01*
X12142014Y-20620608D01*
X12170131Y-20654869D01*
X12204392Y-20682986D01*
X12243479Y-20703879D01*
X12285892Y-20716745D01*
X12330000Y-20721089D01*
X12543750Y-20720000D01*
X12600000Y-20663750D01*
X12600000Y-20200000D01*
X12161250Y-20200000D01*
X12105000Y-20256250D01*
X12103911Y-20495000D01*
X4252768Y-20495000D01*
X4193830Y-20436062D01*
X3758629Y-20145270D01*
X3275060Y-19944969D01*
X2822754Y-19855000D01*
X12103911Y-19855000D01*
X12105000Y-20093750D01*
X12161250Y-20150000D01*
X12600000Y-20150000D01*
X12600000Y-19686250D01*
X12543750Y-19630000D01*
X12330000Y-19628911D01*
X12285892Y-19633255D01*
X12243479Y-19646121D01*
X12204392Y-19667014D01*
X12170131Y-19695131D01*
X12142014Y-19729392D01*
X12121121Y-19768479D01*
X12108255Y-19810892D01*
X12103911Y-19855000D01*
X2822754Y-19855000D01*
X2761706Y-19842857D01*
X2238294Y-19842857D01*
X1724940Y-19944969D01*
X1241371Y-20145270D01*
X806170Y-20436062D01*
X436062Y-20806170D01*
X275127Y-21047026D01*
X275277Y-16378292D01*
X2515000Y-16378292D01*
X2515000Y-16481708D01*
X2535176Y-16583137D01*
X2574751Y-16678681D01*
X2632206Y-16764668D01*
X2705332Y-16837794D01*
X2791319Y-16895249D01*
X2886863Y-16934824D01*
X2988292Y-16955000D01*
X3091708Y-16955000D01*
X3132602Y-16946865D01*
X4512451Y-18326715D01*
X4521843Y-18338159D01*
X4533286Y-18347550D01*
X4567523Y-18375648D01*
X4578388Y-18381455D01*
X4619641Y-18403505D01*
X4676191Y-18420660D01*
X4720268Y-18425001D01*
X4720277Y-18425001D01*
X4735000Y-18426451D01*
X4749723Y-18425001D01*
X10692565Y-18425001D01*
X10692565Y-18484871D01*
X10712741Y-18586300D01*
X10752316Y-18681844D01*
X10809771Y-18767831D01*
X10882897Y-18840957D01*
X10968884Y-18898412D01*
X11064428Y-18937987D01*
X11165857Y-18958163D01*
X11269273Y-18958163D01*
X11370702Y-18937987D01*
X11466246Y-18898412D01*
X11552233Y-18840957D01*
X11625359Y-18767831D01*
X11682814Y-18681844D01*
X11722389Y-18586300D01*
X11742565Y-18484871D01*
X11742565Y-18381455D01*
X11722389Y-18280026D01*
X11682814Y-18184482D01*
X11625359Y-18098495D01*
X11552233Y-18025369D01*
X11466246Y-17967914D01*
X11428135Y-17952128D01*
X11591398Y-17788865D01*
X11632292Y-17797000D01*
X11735708Y-17797000D01*
X11837137Y-17776824D01*
X11932681Y-17737249D01*
X12018668Y-17679794D01*
X12091794Y-17606668D01*
X12149249Y-17520681D01*
X12188824Y-17425137D01*
X12209000Y-17323708D01*
X12209000Y-17220292D01*
X12188824Y-17118863D01*
X12149249Y-17023319D01*
X12091794Y-16937332D01*
X12018668Y-16864206D01*
X11932681Y-16806751D01*
X11837137Y-16767176D01*
X11735708Y-16747000D01*
X11632292Y-16747000D01*
X11530863Y-16767176D01*
X11435319Y-16806751D01*
X11349332Y-16864206D01*
X11276206Y-16937332D01*
X11218751Y-17023319D01*
X11179176Y-17118863D01*
X11159000Y-17220292D01*
X11159000Y-17323708D01*
X11167135Y-17364602D01*
X11006746Y-17524991D01*
X10274255Y-17524991D01*
X10047553Y-17298289D01*
X10038158Y-17286842D01*
X9992477Y-17249353D01*
X9940360Y-17221496D01*
X9901088Y-17209582D01*
X9901088Y-17100000D01*
X9896744Y-17055892D01*
X9883878Y-17013480D01*
X9862985Y-16974392D01*
X9834868Y-16940132D01*
X9800608Y-16912015D01*
X9761520Y-16891122D01*
X9719108Y-16878256D01*
X9675000Y-16873912D01*
X7675000Y-16873912D01*
X7630892Y-16878256D01*
X7588480Y-16891122D01*
X7549392Y-16912015D01*
X7515132Y-16940132D01*
X7487015Y-16974392D01*
X7466122Y-17013480D01*
X7453256Y-17055892D01*
X7448912Y-17100000D01*
X7448912Y-17150000D01*
X7376088Y-17150000D01*
X7376088Y-17100000D01*
X7371744Y-17055892D01*
X7358878Y-17013480D01*
X7337985Y-16974392D01*
X7309868Y-16940132D01*
X7275608Y-16912015D01*
X7236520Y-16891122D01*
X7194108Y-16878256D01*
X7150000Y-16873912D01*
X5150000Y-16873912D01*
X5105892Y-16878256D01*
X5063480Y-16891122D01*
X5024392Y-16912015D01*
X4990132Y-16940132D01*
X4962015Y-16974392D01*
X4941122Y-17013480D01*
X4928256Y-17055892D01*
X4923912Y-17100000D01*
X4923912Y-17825001D01*
X4859265Y-17825001D01*
X3556865Y-16522602D01*
X3565000Y-16481708D01*
X3565000Y-16378292D01*
X3544824Y-16276863D01*
X3505249Y-16181319D01*
X3447794Y-16095332D01*
X3374668Y-16022206D01*
X3288681Y-15964751D01*
X3193137Y-15925176D01*
X3091708Y-15905000D01*
X2988292Y-15905000D01*
X2886863Y-15925176D01*
X2791319Y-15964751D01*
X2705332Y-16022206D01*
X2632206Y-16095332D01*
X2574751Y-16181319D01*
X2535176Y-16276863D01*
X2515000Y-16378292D01*
X275277Y-16378292D01*
X275337Y-14540228D01*
X3387223Y-14527278D01*
X3412206Y-14564668D01*
X3485332Y-14637794D01*
X3571319Y-14695249D01*
X3666863Y-14734824D01*
X3768292Y-14755000D01*
X3871708Y-14755000D01*
X3973137Y-14734824D01*
X4068681Y-14695249D01*
X4154668Y-14637794D01*
X4227794Y-14564668D01*
X4255191Y-14523666D01*
X10032021Y-14499627D01*
X10162731Y-14630337D01*
X10154597Y-14671231D01*
X10154597Y-14774647D01*
X10174773Y-14876076D01*
X10214348Y-14971620D01*
X10271803Y-15057607D01*
X10344929Y-15130733D01*
X10430916Y-15188188D01*
X10459433Y-15200000D01*
X9901088Y-15200000D01*
X9901088Y-15100000D01*
X9896744Y-15055892D01*
X9883878Y-15013480D01*
X9862985Y-14974392D01*
X9834868Y-14940132D01*
X9800608Y-14912015D01*
X9761520Y-14891122D01*
X9719108Y-14878256D01*
X9675000Y-14873912D01*
X7675000Y-14873912D01*
X7630892Y-14878256D01*
X7588480Y-14891122D01*
X7549392Y-14912015D01*
X7515132Y-14940132D01*
X7487015Y-14974392D01*
X7466122Y-15013480D01*
X7453256Y-15055892D01*
X7448912Y-15100000D01*
X7448912Y-15150000D01*
X7376088Y-15150000D01*
X7376088Y-15100000D01*
X7371744Y-15055892D01*
X7358878Y-15013480D01*
X7337985Y-14974392D01*
X7309868Y-14940132D01*
X7275608Y-14912015D01*
X7236520Y-14891122D01*
X7194108Y-14878256D01*
X7150000Y-14873912D01*
X5150000Y-14873912D01*
X5105892Y-14878256D01*
X5063480Y-14891122D01*
X5024392Y-14912015D01*
X4990132Y-14940132D01*
X4962015Y-14974392D01*
X4941122Y-15013480D01*
X4928256Y-15055892D01*
X4923912Y-15100000D01*
X4923912Y-15900000D01*
X4928256Y-15944108D01*
X4941122Y-15986520D01*
X4962015Y-16025608D01*
X4990132Y-16059868D01*
X5024392Y-16087985D01*
X5063480Y-16108878D01*
X5105892Y-16121744D01*
X5150000Y-16126088D01*
X7150000Y-16126088D01*
X7194108Y-16121744D01*
X7236520Y-16108878D01*
X7275608Y-16087985D01*
X7309868Y-16059868D01*
X7337985Y-16025608D01*
X7358878Y-15986520D01*
X7371744Y-15944108D01*
X7376088Y-15900000D01*
X7376088Y-15850000D01*
X7448912Y-15850000D01*
X7448912Y-15900000D01*
X7453256Y-15944108D01*
X7466122Y-15986520D01*
X7487015Y-16025608D01*
X7515132Y-16059868D01*
X7549392Y-16087985D01*
X7588480Y-16108878D01*
X7630892Y-16121744D01*
X7675000Y-16126088D01*
X9675000Y-16126088D01*
X9719108Y-16121744D01*
X9761520Y-16108878D01*
X9800608Y-16087985D01*
X9834868Y-16059868D01*
X9862985Y-16025608D01*
X9883878Y-15986520D01*
X9896744Y-15944108D01*
X9901088Y-15900000D01*
X9901088Y-15800000D01*
X10749051Y-15800000D01*
X10768206Y-15828668D01*
X10841332Y-15901794D01*
X10927319Y-15959249D01*
X11022863Y-15998824D01*
X11124292Y-16019000D01*
X11227708Y-16019000D01*
X11329137Y-15998824D01*
X11424681Y-15959249D01*
X11510668Y-15901794D01*
X11583794Y-15828668D01*
X11641249Y-15742681D01*
X11680824Y-15647137D01*
X11701000Y-15545708D01*
X11701000Y-15442292D01*
X11680824Y-15340863D01*
X11641249Y-15245319D01*
X11583794Y-15159332D01*
X11510668Y-15086206D01*
X11424681Y-15028751D01*
X11329137Y-14989176D01*
X11227708Y-14969000D01*
X11145931Y-14969000D01*
X11184421Y-14876076D01*
X11204597Y-14774647D01*
X11204597Y-14671231D01*
X11184421Y-14569802D01*
X11153421Y-14494960D01*
X11574517Y-14493208D01*
X11574517Y-14619783D01*
X11573066Y-14634516D01*
X11578858Y-14693326D01*
X11596013Y-14749876D01*
X11623869Y-14801993D01*
X11651967Y-14836230D01*
X11661359Y-14847674D01*
X11672801Y-14857064D01*
X12106640Y-15290904D01*
X12106641Y-16316907D01*
X12105190Y-16331640D01*
X12110982Y-16390450D01*
X12128137Y-16447000D01*
X12155993Y-16499117D01*
X12184091Y-16533354D01*
X12193483Y-16544798D01*
X12204925Y-16554188D01*
X13245001Y-17594265D01*
X13245000Y-19689171D01*
X13239946Y-19691873D01*
X13183333Y-19738333D01*
X13136898Y-19794915D01*
X13128879Y-19768479D01*
X13107986Y-19729392D01*
X13079869Y-19695131D01*
X13045608Y-19667014D01*
X13006521Y-19646121D01*
X12964108Y-19633255D01*
X12920000Y-19628911D01*
X12706250Y-19630000D01*
X12650000Y-19686250D01*
X12650000Y-20150000D01*
X12670000Y-20150000D01*
X12670000Y-20200000D01*
X12650000Y-20200000D01*
X12650000Y-20663750D01*
X12706250Y-20720000D01*
X12920000Y-20721089D01*
X12964108Y-20716745D01*
X13006521Y-20703879D01*
X13045608Y-20682986D01*
X13075001Y-20658864D01*
X13075001Y-20821374D01*
X13055892Y-20823256D01*
X13013480Y-20836122D01*
X12974392Y-20857015D01*
X12950001Y-20877033D01*
X12925608Y-20857014D01*
X12886521Y-20836121D01*
X12844108Y-20823255D01*
X12800000Y-20818911D01*
X12556250Y-20820000D01*
X12500000Y-20876250D01*
X12500000Y-21550000D01*
X12520000Y-21550000D01*
X12520000Y-21600000D01*
X12500000Y-21600000D01*
X12500000Y-21620000D01*
X12450000Y-21620000D01*
X12450000Y-21600000D01*
X12430000Y-21600000D01*
X12430000Y-21550000D01*
X12450000Y-21550000D01*
X12450000Y-20876250D01*
X12393750Y-20820000D01*
X12150000Y-20818911D01*
X12105892Y-20823255D01*
X12063479Y-20836121D01*
X12024392Y-20857014D01*
X11999999Y-20877033D01*
X11975608Y-20857015D01*
X11936520Y-20836122D01*
X11894108Y-20823256D01*
X11850000Y-20818912D01*
X11200000Y-20818912D01*
X11155892Y-20823256D01*
X11113480Y-20836122D01*
X11074392Y-20857015D01*
X11040132Y-20885132D01*
X11012015Y-20919392D01*
X10991122Y-20958480D01*
X10978256Y-21000892D01*
X10973912Y-21045000D01*
X10973912Y-22105000D01*
X10978256Y-22149108D01*
X10991122Y-22191520D01*
X11012015Y-22230608D01*
X11040132Y-22264868D01*
X11074392Y-22292985D01*
X11113480Y-22313878D01*
X11155892Y-22326744D01*
X11200000Y-22331088D01*
X11234583Y-22331088D01*
X11246497Y-22370360D01*
X11274353Y-22422477D01*
X11293133Y-22445360D01*
X11311843Y-22468158D01*
X11323286Y-22477549D01*
X11377448Y-22531711D01*
X11386843Y-22543159D01*
X11432524Y-22580648D01*
X11484641Y-22608505D01*
X11541191Y-22625660D01*
X11585268Y-22630001D01*
X11585277Y-22630001D01*
X11600000Y-22631451D01*
X11614723Y-22630001D01*
X12965278Y-22630001D01*
X12980001Y-22631451D01*
X12994724Y-22630001D01*
X12994734Y-22630001D01*
X13038811Y-22625660D01*
X13095361Y-22608505D01*
X13147478Y-22580648D01*
X13193159Y-22543159D01*
X13202554Y-22531711D01*
X13403177Y-22331088D01*
X13750000Y-22331088D01*
X13794108Y-22326744D01*
X13836520Y-22313878D01*
X13875608Y-22292985D01*
X13909868Y-22264868D01*
X13937985Y-22230608D01*
X13958878Y-22191520D01*
X13971744Y-22149108D01*
X13976088Y-22105000D01*
X13976088Y-21045000D01*
X13971744Y-21000892D01*
X13958878Y-20958480D01*
X13937985Y-20919392D01*
X13909868Y-20885132D01*
X13875608Y-20857015D01*
X13836520Y-20836122D01*
X13794108Y-20823256D01*
X13775000Y-20821374D01*
X13775000Y-20717887D01*
X13815383Y-20713910D01*
X13885466Y-20692650D01*
X13950054Y-20658127D01*
X14006667Y-20611667D01*
X14053127Y-20555054D01*
X14087650Y-20490466D01*
X14108910Y-20420383D01*
X14116088Y-20347500D01*
X14116088Y-20002500D01*
X14108910Y-19929617D01*
X14087650Y-19859534D01*
X14053127Y-19794946D01*
X14006667Y-19738333D01*
X13950054Y-19691873D01*
X13945000Y-19689172D01*
X13945000Y-17502811D01*
X13939935Y-17451388D01*
X13919922Y-17385413D01*
X13887422Y-17324610D01*
X13843685Y-17271315D01*
X13790390Y-17227578D01*
X13729587Y-17195078D01*
X13678995Y-17179731D01*
X12706640Y-16207377D01*
X12706640Y-15181363D01*
X12708090Y-15166640D01*
X12706640Y-15151917D01*
X12706640Y-15151907D01*
X12702299Y-15107830D01*
X12685144Y-15051280D01*
X12664940Y-15013480D01*
X12657287Y-14999162D01*
X12629189Y-14964925D01*
X12619798Y-14953482D01*
X12608356Y-14944092D01*
X12174516Y-14510253D01*
X12174516Y-14490711D01*
X13392008Y-14485645D01*
X13705187Y-14634035D01*
G04 #@! TA.AperFunction,Conductor*
D17*
G36*
X13705187Y-14634035D02*
G01*
X13728654Y-14642462D01*
X13751983Y-14651208D01*
X13755696Y-14652172D01*
X13755699Y-14652173D01*
X13755701Y-14652173D01*
X14134828Y-14747772D01*
X14159462Y-14751477D01*
X14184068Y-14755529D01*
X14187900Y-14755754D01*
X14187902Y-14755754D01*
X14578377Y-14775893D01*
X14603267Y-14774742D01*
X14628185Y-14773938D01*
X14631990Y-14773414D01*
X14704938Y-14762840D01*
X14718892Y-24720463D01*
X3954607Y-24723782D01*
X4193830Y-24563938D01*
X4563938Y-24193830D01*
X4854730Y-23758629D01*
X5055031Y-23275060D01*
X5107754Y-23010000D01*
X9553911Y-23010000D01*
X9558255Y-23054108D01*
X9571121Y-23096521D01*
X9592014Y-23135608D01*
X9620131Y-23169869D01*
X9654392Y-23197986D01*
X9693479Y-23218879D01*
X9719915Y-23226898D01*
X9663333Y-23273333D01*
X9616873Y-23329946D01*
X9582350Y-23394534D01*
X9561090Y-23464617D01*
X9553912Y-23537500D01*
X9553912Y-23832500D01*
X9561090Y-23905383D01*
X9582350Y-23975466D01*
X9616873Y-24040054D01*
X9663333Y-24096667D01*
X9719946Y-24143127D01*
X9784534Y-24177650D01*
X9854617Y-24198910D01*
X9927500Y-24206088D01*
X10272500Y-24206088D01*
X10345383Y-24198910D01*
X10415466Y-24177650D01*
X10480054Y-24143127D01*
X10536667Y-24096667D01*
X10583127Y-24040054D01*
X10617650Y-23975466D01*
X10638910Y-23905383D01*
X10640425Y-23890000D01*
X10905000Y-23890000D01*
X10905000Y-23927708D01*
X10925176Y-24029137D01*
X10964751Y-24124681D01*
X10973912Y-24138391D01*
X10973912Y-24305000D01*
X10978256Y-24349108D01*
X10991122Y-24391520D01*
X11012015Y-24430608D01*
X11040132Y-24464868D01*
X11074392Y-24492985D01*
X11113480Y-24513878D01*
X11155892Y-24526744D01*
X11200000Y-24531088D01*
X11850000Y-24531088D01*
X11894108Y-24526744D01*
X11936520Y-24513878D01*
X11975608Y-24492985D01*
X12009868Y-24464868D01*
X12037985Y-24430608D01*
X12058878Y-24391520D01*
X12071744Y-24349108D01*
X12076088Y-24305000D01*
X12076088Y-23245000D01*
X12873912Y-23245000D01*
X12873912Y-24305000D01*
X12878256Y-24349108D01*
X12891122Y-24391520D01*
X12912015Y-24430608D01*
X12940132Y-24464868D01*
X12974392Y-24492985D01*
X13013480Y-24513878D01*
X13055892Y-24526744D01*
X13100000Y-24531088D01*
X13750000Y-24531088D01*
X13794108Y-24526744D01*
X13836520Y-24513878D01*
X13875608Y-24492985D01*
X13909868Y-24464868D01*
X13937985Y-24430608D01*
X13958878Y-24391520D01*
X13971744Y-24349108D01*
X13976088Y-24305000D01*
X13976088Y-23245000D01*
X13971744Y-23200892D01*
X13958878Y-23158480D01*
X13937985Y-23119392D01*
X13909868Y-23085132D01*
X13875608Y-23057015D01*
X13836520Y-23036122D01*
X13794108Y-23023256D01*
X13750000Y-23018912D01*
X13100000Y-23018912D01*
X13055892Y-23023256D01*
X13013480Y-23036122D01*
X12974392Y-23057015D01*
X12940132Y-23085132D01*
X12912015Y-23119392D01*
X12891122Y-23158480D01*
X12878256Y-23200892D01*
X12873912Y-23245000D01*
X12076088Y-23245000D01*
X12071744Y-23200892D01*
X12058878Y-23158480D01*
X12037985Y-23119392D01*
X12009868Y-23085132D01*
X11975608Y-23057015D01*
X11936520Y-23036122D01*
X11894108Y-23023256D01*
X11850000Y-23018912D01*
X11200000Y-23018912D01*
X11155892Y-23023256D01*
X11113480Y-23036122D01*
X11074392Y-23057015D01*
X11040132Y-23085132D01*
X11012015Y-23119392D01*
X10991122Y-23158480D01*
X10981560Y-23190000D01*
X10555339Y-23190000D01*
X10579869Y-23169869D01*
X10607986Y-23135608D01*
X10628879Y-23096521D01*
X10641745Y-23054108D01*
X10646089Y-23010000D01*
X10645000Y-22796250D01*
X10588750Y-22740000D01*
X10125000Y-22740000D01*
X10125000Y-22760000D01*
X10075000Y-22760000D01*
X10075000Y-22740000D01*
X9611250Y-22740000D01*
X9555000Y-22796250D01*
X9553911Y-23010000D01*
X5107754Y-23010000D01*
X5157143Y-22761706D01*
X5157143Y-22420000D01*
X9553911Y-22420000D01*
X9555000Y-22633750D01*
X9611250Y-22690000D01*
X10075000Y-22690000D01*
X10075000Y-22251250D01*
X10125000Y-22251250D01*
X10125000Y-22690000D01*
X10588750Y-22690000D01*
X10645000Y-22633750D01*
X10646089Y-22420000D01*
X10641745Y-22375892D01*
X10628879Y-22333479D01*
X10607986Y-22294392D01*
X10579869Y-22260131D01*
X10545608Y-22232014D01*
X10506521Y-22211121D01*
X10464108Y-22198255D01*
X10420000Y-22193911D01*
X10181250Y-22195000D01*
X10125000Y-22251250D01*
X10075000Y-22251250D01*
X10018750Y-22195000D01*
X9780000Y-22193911D01*
X9735892Y-22198255D01*
X9693479Y-22211121D01*
X9654392Y-22232014D01*
X9620131Y-22260131D01*
X9592014Y-22294392D01*
X9571121Y-22333479D01*
X9558255Y-22375892D01*
X9553911Y-22420000D01*
X5157143Y-22420000D01*
X5157143Y-22238294D01*
X5055031Y-21724940D01*
X4854730Y-21241371D01*
X4563938Y-20806170D01*
X4252768Y-20495000D01*
X12103911Y-20495000D01*
X12108255Y-20539108D01*
X12121121Y-20581521D01*
X12142014Y-20620608D01*
X12170131Y-20654869D01*
X12204392Y-20682986D01*
X12243479Y-20703879D01*
X12285892Y-20716745D01*
X12330000Y-20721089D01*
X12543750Y-20720000D01*
X12600000Y-20663750D01*
X12600000Y-20200000D01*
X12161250Y-20200000D01*
X12105000Y-20256250D01*
X12103911Y-20495000D01*
X4252768Y-20495000D01*
X4193830Y-20436062D01*
X3758629Y-20145270D01*
X3275060Y-19944969D01*
X2822754Y-19855000D01*
X12103911Y-19855000D01*
X12105000Y-20093750D01*
X12161250Y-20150000D01*
X12600000Y-20150000D01*
X12600000Y-19686250D01*
X12543750Y-19630000D01*
X12330000Y-19628911D01*
X12285892Y-19633255D01*
X12243479Y-19646121D01*
X12204392Y-19667014D01*
X12170131Y-19695131D01*
X12142014Y-19729392D01*
X12121121Y-19768479D01*
X12108255Y-19810892D01*
X12103911Y-19855000D01*
X2822754Y-19855000D01*
X2761706Y-19842857D01*
X2238294Y-19842857D01*
X1724940Y-19944969D01*
X1241371Y-20145270D01*
X806170Y-20436062D01*
X436062Y-20806170D01*
X275127Y-21047026D01*
X275277Y-16378292D01*
X2515000Y-16378292D01*
X2515000Y-16481708D01*
X2535176Y-16583137D01*
X2574751Y-16678681D01*
X2632206Y-16764668D01*
X2705332Y-16837794D01*
X2791319Y-16895249D01*
X2886863Y-16934824D01*
X2988292Y-16955000D01*
X3091708Y-16955000D01*
X3132602Y-16946865D01*
X4512451Y-18326715D01*
X4521843Y-18338159D01*
X4533286Y-18347550D01*
X4567523Y-18375648D01*
X4578388Y-18381455D01*
X4619641Y-18403505D01*
X4676191Y-18420660D01*
X4720268Y-18425001D01*
X4720277Y-18425001D01*
X4735000Y-18426451D01*
X4749723Y-18425001D01*
X10692565Y-18425001D01*
X10692565Y-18484871D01*
X10712741Y-18586300D01*
X10752316Y-18681844D01*
X10809771Y-18767831D01*
X10882897Y-18840957D01*
X10968884Y-18898412D01*
X11064428Y-18937987D01*
X11165857Y-18958163D01*
X11269273Y-18958163D01*
X11370702Y-18937987D01*
X11466246Y-18898412D01*
X11552233Y-18840957D01*
X11625359Y-18767831D01*
X11682814Y-18681844D01*
X11722389Y-18586300D01*
X11742565Y-18484871D01*
X11742565Y-18381455D01*
X11722389Y-18280026D01*
X11682814Y-18184482D01*
X11625359Y-18098495D01*
X11552233Y-18025369D01*
X11466246Y-17967914D01*
X11428135Y-17952128D01*
X11591398Y-17788865D01*
X11632292Y-17797000D01*
X11735708Y-17797000D01*
X11837137Y-17776824D01*
X11932681Y-17737249D01*
X12018668Y-17679794D01*
X12091794Y-17606668D01*
X12149249Y-17520681D01*
X12188824Y-17425137D01*
X12209000Y-17323708D01*
X12209000Y-17220292D01*
X12188824Y-17118863D01*
X12149249Y-17023319D01*
X12091794Y-16937332D01*
X12018668Y-16864206D01*
X11932681Y-16806751D01*
X11837137Y-16767176D01*
X11735708Y-16747000D01*
X11632292Y-16747000D01*
X11530863Y-16767176D01*
X11435319Y-16806751D01*
X11349332Y-16864206D01*
X11276206Y-16937332D01*
X11218751Y-17023319D01*
X11179176Y-17118863D01*
X11159000Y-17220292D01*
X11159000Y-17323708D01*
X11167135Y-17364602D01*
X11006746Y-17524991D01*
X10274255Y-17524991D01*
X10047553Y-17298289D01*
X10038158Y-17286842D01*
X9992477Y-17249353D01*
X9940360Y-17221496D01*
X9901088Y-17209582D01*
X9901088Y-17100000D01*
X9896744Y-17055892D01*
X9883878Y-17013480D01*
X9862985Y-16974392D01*
X9834868Y-16940132D01*
X9800608Y-16912015D01*
X9761520Y-16891122D01*
X9719108Y-16878256D01*
X9675000Y-16873912D01*
X7675000Y-16873912D01*
X7630892Y-16878256D01*
X7588480Y-16891122D01*
X7549392Y-16912015D01*
X7515132Y-16940132D01*
X7487015Y-16974392D01*
X7466122Y-17013480D01*
X7453256Y-17055892D01*
X7448912Y-17100000D01*
X7448912Y-17150000D01*
X7376088Y-17150000D01*
X7376088Y-17100000D01*
X7371744Y-17055892D01*
X7358878Y-17013480D01*
X7337985Y-16974392D01*
X7309868Y-16940132D01*
X7275608Y-16912015D01*
X7236520Y-16891122D01*
X7194108Y-16878256D01*
X7150000Y-16873912D01*
X5150000Y-16873912D01*
X5105892Y-16878256D01*
X5063480Y-16891122D01*
X5024392Y-16912015D01*
X4990132Y-16940132D01*
X4962015Y-16974392D01*
X4941122Y-17013480D01*
X4928256Y-17055892D01*
X4923912Y-17100000D01*
X4923912Y-17825001D01*
X4859265Y-17825001D01*
X3556865Y-16522602D01*
X3565000Y-16481708D01*
X3565000Y-16378292D01*
X3544824Y-16276863D01*
X3505249Y-16181319D01*
X3447794Y-16095332D01*
X3374668Y-16022206D01*
X3288681Y-15964751D01*
X3193137Y-15925176D01*
X3091708Y-15905000D01*
X2988292Y-15905000D01*
X2886863Y-15925176D01*
X2791319Y-15964751D01*
X2705332Y-16022206D01*
X2632206Y-16095332D01*
X2574751Y-16181319D01*
X2535176Y-16276863D01*
X2515000Y-16378292D01*
X275277Y-16378292D01*
X275337Y-14540228D01*
X3387223Y-14527278D01*
X3412206Y-14564668D01*
X3485332Y-14637794D01*
X3571319Y-14695249D01*
X3666863Y-14734824D01*
X3768292Y-14755000D01*
X3871708Y-14755000D01*
X3973137Y-14734824D01*
X4068681Y-14695249D01*
X4154668Y-14637794D01*
X4227794Y-14564668D01*
X4255191Y-14523666D01*
X10032021Y-14499627D01*
X10162731Y-14630337D01*
X10154597Y-14671231D01*
X10154597Y-14774647D01*
X10174773Y-14876076D01*
X10214348Y-14971620D01*
X10271803Y-15057607D01*
X10344929Y-15130733D01*
X10430916Y-15188188D01*
X10459433Y-15200000D01*
X9901088Y-15200000D01*
X9901088Y-15100000D01*
X9896744Y-15055892D01*
X9883878Y-15013480D01*
X9862985Y-14974392D01*
X9834868Y-14940132D01*
X9800608Y-14912015D01*
X9761520Y-14891122D01*
X9719108Y-14878256D01*
X9675000Y-14873912D01*
X7675000Y-14873912D01*
X7630892Y-14878256D01*
X7588480Y-14891122D01*
X7549392Y-14912015D01*
X7515132Y-14940132D01*
X7487015Y-14974392D01*
X7466122Y-15013480D01*
X7453256Y-15055892D01*
X7448912Y-15100000D01*
X7448912Y-15150000D01*
X7376088Y-15150000D01*
X7376088Y-15100000D01*
X7371744Y-15055892D01*
X7358878Y-15013480D01*
X7337985Y-14974392D01*
X7309868Y-14940132D01*
X7275608Y-14912015D01*
X7236520Y-14891122D01*
X7194108Y-14878256D01*
X7150000Y-14873912D01*
X5150000Y-14873912D01*
X5105892Y-14878256D01*
X5063480Y-14891122D01*
X5024392Y-14912015D01*
X4990132Y-14940132D01*
X4962015Y-14974392D01*
X4941122Y-15013480D01*
X4928256Y-15055892D01*
X4923912Y-15100000D01*
X4923912Y-15900000D01*
X4928256Y-15944108D01*
X4941122Y-15986520D01*
X4962015Y-16025608D01*
X4990132Y-16059868D01*
X5024392Y-16087985D01*
X5063480Y-16108878D01*
X5105892Y-16121744D01*
X5150000Y-16126088D01*
X7150000Y-16126088D01*
X7194108Y-16121744D01*
X7236520Y-16108878D01*
X7275608Y-16087985D01*
X7309868Y-16059868D01*
X7337985Y-16025608D01*
X7358878Y-15986520D01*
X7371744Y-15944108D01*
X7376088Y-15900000D01*
X7376088Y-15850000D01*
X7448912Y-15850000D01*
X7448912Y-15900000D01*
X7453256Y-15944108D01*
X7466122Y-15986520D01*
X7487015Y-16025608D01*
X7515132Y-16059868D01*
X7549392Y-16087985D01*
X7588480Y-16108878D01*
X7630892Y-16121744D01*
X7675000Y-16126088D01*
X9675000Y-16126088D01*
X9719108Y-16121744D01*
X9761520Y-16108878D01*
X9800608Y-16087985D01*
X9834868Y-16059868D01*
X9862985Y-16025608D01*
X9883878Y-15986520D01*
X9896744Y-15944108D01*
X9901088Y-15900000D01*
X9901088Y-15800000D01*
X10749051Y-15800000D01*
X10768206Y-15828668D01*
X10841332Y-15901794D01*
X10927319Y-15959249D01*
X11022863Y-15998824D01*
X11124292Y-16019000D01*
X11227708Y-16019000D01*
X11329137Y-15998824D01*
X11424681Y-15959249D01*
X11510668Y-15901794D01*
X11583794Y-15828668D01*
X11641249Y-15742681D01*
X11680824Y-15647137D01*
X11701000Y-15545708D01*
X11701000Y-15442292D01*
X11680824Y-15340863D01*
X11641249Y-15245319D01*
X11583794Y-15159332D01*
X11510668Y-15086206D01*
X11424681Y-15028751D01*
X11329137Y-14989176D01*
X11227708Y-14969000D01*
X11145931Y-14969000D01*
X11184421Y-14876076D01*
X11204597Y-14774647D01*
X11204597Y-14671231D01*
X11184421Y-14569802D01*
X11153421Y-14494960D01*
X11574517Y-14493208D01*
X11574517Y-14619783D01*
X11573066Y-14634516D01*
X11578858Y-14693326D01*
X11596013Y-14749876D01*
X11623869Y-14801993D01*
X11651967Y-14836230D01*
X11661359Y-14847674D01*
X11672801Y-14857064D01*
X12106640Y-15290904D01*
X12106641Y-16316907D01*
X12105190Y-16331640D01*
X12110982Y-16390450D01*
X12128137Y-16447000D01*
X12155993Y-16499117D01*
X12184091Y-16533354D01*
X12193483Y-16544798D01*
X12204925Y-16554188D01*
X13245001Y-17594265D01*
X13245000Y-19689171D01*
X13239946Y-19691873D01*
X13183333Y-19738333D01*
X13136898Y-19794915D01*
X13128879Y-19768479D01*
X13107986Y-19729392D01*
X13079869Y-19695131D01*
X13045608Y-19667014D01*
X13006521Y-19646121D01*
X12964108Y-19633255D01*
X12920000Y-19628911D01*
X12706250Y-19630000D01*
X12650000Y-19686250D01*
X12650000Y-20150000D01*
X12670000Y-20150000D01*
X12670000Y-20200000D01*
X12650000Y-20200000D01*
X12650000Y-20663750D01*
X12706250Y-20720000D01*
X12920000Y-20721089D01*
X12964108Y-20716745D01*
X13006521Y-20703879D01*
X13045608Y-20682986D01*
X13075001Y-20658864D01*
X13075001Y-20821374D01*
X13055892Y-20823256D01*
X13013480Y-20836122D01*
X12974392Y-20857015D01*
X12950001Y-20877033D01*
X12925608Y-20857014D01*
X12886521Y-20836121D01*
X12844108Y-20823255D01*
X12800000Y-20818911D01*
X12556250Y-20820000D01*
X12500000Y-20876250D01*
X12500000Y-21550000D01*
X12520000Y-21550000D01*
X12520000Y-21600000D01*
X12500000Y-21600000D01*
X12500000Y-21620000D01*
X12450000Y-21620000D01*
X12450000Y-21600000D01*
X12430000Y-21600000D01*
X12430000Y-21550000D01*
X12450000Y-21550000D01*
X12450000Y-20876250D01*
X12393750Y-20820000D01*
X12150000Y-20818911D01*
X12105892Y-20823255D01*
X12063479Y-20836121D01*
X12024392Y-20857014D01*
X11999999Y-20877033D01*
X11975608Y-20857015D01*
X11936520Y-20836122D01*
X11894108Y-20823256D01*
X11850000Y-20818912D01*
X11200000Y-20818912D01*
X11155892Y-20823256D01*
X11113480Y-20836122D01*
X11074392Y-20857015D01*
X11040132Y-20885132D01*
X11012015Y-20919392D01*
X10991122Y-20958480D01*
X10978256Y-21000892D01*
X10973912Y-21045000D01*
X10973912Y-22105000D01*
X10978256Y-22149108D01*
X10991122Y-22191520D01*
X11012015Y-22230608D01*
X11040132Y-22264868D01*
X11074392Y-22292985D01*
X11113480Y-22313878D01*
X11155892Y-22326744D01*
X11200000Y-22331088D01*
X11234583Y-22331088D01*
X11246497Y-22370360D01*
X11274353Y-22422477D01*
X11293133Y-22445360D01*
X11311843Y-22468158D01*
X11323286Y-22477549D01*
X11377448Y-22531711D01*
X11386843Y-22543159D01*
X11432524Y-22580648D01*
X11484641Y-22608505D01*
X11541191Y-22625660D01*
X11585268Y-22630001D01*
X11585277Y-22630001D01*
X11600000Y-22631451D01*
X11614723Y-22630001D01*
X12965278Y-22630001D01*
X12980001Y-22631451D01*
X12994724Y-22630001D01*
X12994734Y-22630001D01*
X13038811Y-22625660D01*
X13095361Y-22608505D01*
X13147478Y-22580648D01*
X13193159Y-22543159D01*
X13202554Y-22531711D01*
X13403177Y-22331088D01*
X13750000Y-22331088D01*
X13794108Y-22326744D01*
X13836520Y-22313878D01*
X13875608Y-22292985D01*
X13909868Y-22264868D01*
X13937985Y-22230608D01*
X13958878Y-22191520D01*
X13971744Y-22149108D01*
X13976088Y-22105000D01*
X13976088Y-21045000D01*
X13971744Y-21000892D01*
X13958878Y-20958480D01*
X13937985Y-20919392D01*
X13909868Y-20885132D01*
X13875608Y-20857015D01*
X13836520Y-20836122D01*
X13794108Y-20823256D01*
X13775000Y-20821374D01*
X13775000Y-20717887D01*
X13815383Y-20713910D01*
X13885466Y-20692650D01*
X13950054Y-20658127D01*
X14006667Y-20611667D01*
X14053127Y-20555054D01*
X14087650Y-20490466D01*
X14108910Y-20420383D01*
X14116088Y-20347500D01*
X14116088Y-20002500D01*
X14108910Y-19929617D01*
X14087650Y-19859534D01*
X14053127Y-19794946D01*
X14006667Y-19738333D01*
X13950054Y-19691873D01*
X13945000Y-19689172D01*
X13945000Y-17502811D01*
X13939935Y-17451388D01*
X13919922Y-17385413D01*
X13887422Y-17324610D01*
X13843685Y-17271315D01*
X13790390Y-17227578D01*
X13729587Y-17195078D01*
X13678995Y-17179731D01*
X12706640Y-16207377D01*
X12706640Y-15181363D01*
X12708090Y-15166640D01*
X12706640Y-15151917D01*
X12706640Y-15151907D01*
X12702299Y-15107830D01*
X12685144Y-15051280D01*
X12664940Y-15013480D01*
X12657287Y-14999162D01*
X12629189Y-14964925D01*
X12619798Y-14953482D01*
X12608356Y-14944092D01*
X12174516Y-14510253D01*
X12174516Y-14490711D01*
X13392008Y-14485645D01*
X13705187Y-14634035D01*
G37*
G04 #@! TD.AperFunction*
D14*
X10806170Y-436062D02*
X10436062Y-806170D01*
X10145270Y-1241371D01*
X9944969Y-1724940D01*
X9842857Y-2238294D01*
X9842857Y-2761706D01*
X9944969Y-3275060D01*
X10145270Y-3758629D01*
X10436062Y-4193830D01*
X10806170Y-4563938D01*
X11241371Y-4854730D01*
X11724940Y-5055031D01*
X12238294Y-5157143D01*
X12761706Y-5157143D01*
X13275060Y-5055031D01*
X13758629Y-4854730D01*
X14193830Y-4563938D01*
X14563938Y-4193830D01*
X14725001Y-3952783D01*
X14725000Y-10238019D01*
X14389854Y-10225423D01*
X14364961Y-10226922D01*
X14340078Y-10228073D01*
X14336283Y-10228650D01*
X14336279Y-10228650D01*
X13950151Y-10290135D01*
X13931538Y-10295000D01*
X11694264Y-10295000D01*
X10697553Y-9298290D01*
X10688158Y-9286842D01*
X10642477Y-9249353D01*
X10590360Y-9221496D01*
X10533810Y-9204341D01*
X10489733Y-9200000D01*
X10489723Y-9200000D01*
X10475000Y-9198550D01*
X10460277Y-9200000D01*
X9901088Y-9200000D01*
X9901088Y-9100000D01*
X9896744Y-9055892D01*
X9883878Y-9013480D01*
X9862985Y-8974392D01*
X9834868Y-8940132D01*
X9800608Y-8912015D01*
X9761520Y-8891122D01*
X9719108Y-8878256D01*
X9675000Y-8873912D01*
X7675000Y-8873912D01*
X7630892Y-8878256D01*
X7588480Y-8891122D01*
X7549392Y-8912015D01*
X7515132Y-8940132D01*
X7487015Y-8974392D01*
X7466122Y-9013480D01*
X7453256Y-9055892D01*
X7448912Y-9100000D01*
X7448912Y-9150000D01*
X7376088Y-9150000D01*
X7376088Y-9100000D01*
X7371744Y-9055892D01*
X7358878Y-9013480D01*
X7337985Y-8974392D01*
X7309868Y-8940132D01*
X7275608Y-8912015D01*
X7236520Y-8891122D01*
X7194108Y-8878256D01*
X7150000Y-8873912D01*
X5150000Y-8873912D01*
X5105892Y-8878256D01*
X5063480Y-8891122D01*
X5024392Y-8912015D01*
X4990132Y-8940132D01*
X4962015Y-8974392D01*
X4941122Y-9013480D01*
X4928256Y-9055892D01*
X4923912Y-9100000D01*
X4923912Y-9900000D01*
X4928256Y-9944108D01*
X4941122Y-9986520D01*
X4962015Y-10025608D01*
X4990132Y-10059868D01*
X5024392Y-10087985D01*
X5063480Y-10108878D01*
X5105892Y-10121744D01*
X5150000Y-10126088D01*
X7150000Y-10126088D01*
X7194108Y-10121744D01*
X7236520Y-10108878D01*
X7275608Y-10087985D01*
X7309868Y-10059868D01*
X7337985Y-10025608D01*
X7358878Y-9986520D01*
X7371744Y-9944108D01*
X7376088Y-9900000D01*
X7376088Y-9850000D01*
X7448912Y-9850000D01*
X7448912Y-9900000D01*
X7453256Y-9944108D01*
X7466122Y-9986520D01*
X7487015Y-10025608D01*
X7515132Y-10059868D01*
X7549392Y-10087985D01*
X7588480Y-10108878D01*
X7630892Y-10121744D01*
X7675000Y-10126088D01*
X9675000Y-10126088D01*
X9719108Y-10121744D01*
X9761520Y-10108878D01*
X9800608Y-10087985D01*
X9834868Y-10059868D01*
X9862985Y-10025608D01*
X9883878Y-9986520D01*
X9896744Y-9944108D01*
X9901088Y-9900000D01*
X9901088Y-9800000D01*
X10350737Y-9800000D01*
X10845737Y-10295000D01*
X275333Y-10295000D01*
X275224Y-6918292D01*
X275377Y-6918292D01*
X275377Y-7021708D01*
X295553Y-7123137D01*
X335128Y-7218681D01*
X392583Y-7304668D01*
X465709Y-7377794D01*
X551696Y-7435249D01*
X647240Y-7474824D01*
X748669Y-7495000D01*
X852085Y-7495000D01*
X953514Y-7474824D01*
X1049058Y-7435249D01*
X1135045Y-7377794D01*
X1208171Y-7304668D01*
X1231336Y-7270000D01*
X1399374Y-7270000D01*
X1442584Y-7334668D01*
X1515710Y-7407794D01*
X1601697Y-7465249D01*
X1697241Y-7504824D01*
X1798670Y-7525000D01*
X1902086Y-7525000D01*
X2003515Y-7504824D01*
X2099059Y-7465249D01*
X2185046Y-7407794D01*
X2258172Y-7334668D01*
X2315627Y-7248681D01*
X2355202Y-7153137D01*
X2365771Y-7100000D01*
X4923912Y-7100000D01*
X4923912Y-7900000D01*
X4928256Y-7944108D01*
X4941122Y-7986520D01*
X4962015Y-8025608D01*
X4990132Y-8059868D01*
X5024392Y-8087985D01*
X5063480Y-8108878D01*
X5105892Y-8121744D01*
X5150000Y-8126088D01*
X7150000Y-8126088D01*
X7194108Y-8121744D01*
X7236520Y-8108878D01*
X7275608Y-8087985D01*
X7309868Y-8059868D01*
X7337985Y-8025608D01*
X7358878Y-7986520D01*
X7371744Y-7944108D01*
X7376088Y-7900000D01*
X7376088Y-7850000D01*
X7448912Y-7850000D01*
X7448912Y-7900000D01*
X7453256Y-7944108D01*
X7466122Y-7986520D01*
X7487015Y-8025608D01*
X7515132Y-8059868D01*
X7549392Y-8087985D01*
X7588480Y-8108878D01*
X7630892Y-8121744D01*
X7675000Y-8126088D01*
X9675000Y-8126088D01*
X9719108Y-8121744D01*
X9761520Y-8108878D01*
X9800608Y-8087985D01*
X9834868Y-8059868D01*
X9862985Y-8025608D01*
X9883878Y-7986520D01*
X9896744Y-7944108D01*
X9901088Y-7900000D01*
X9901088Y-7100000D01*
X9896744Y-7055892D01*
X9883878Y-7013480D01*
X9862985Y-6974392D01*
X9834868Y-6940132D01*
X9800608Y-6912015D01*
X9761520Y-6891122D01*
X9719108Y-6878256D01*
X9675000Y-6873912D01*
X7675000Y-6873912D01*
X7630892Y-6878256D01*
X7588480Y-6891122D01*
X7549392Y-6912015D01*
X7515132Y-6940132D01*
X7487015Y-6974392D01*
X7466122Y-7013480D01*
X7453256Y-7055892D01*
X7448912Y-7100000D01*
X7448912Y-7150000D01*
X7376088Y-7150000D01*
X7376088Y-7100000D01*
X7371744Y-7055892D01*
X7358878Y-7013480D01*
X7337985Y-6974392D01*
X7309868Y-6940132D01*
X7275608Y-6912015D01*
X7236520Y-6891122D01*
X7194108Y-6878256D01*
X7150000Y-6873912D01*
X5150000Y-6873912D01*
X5105892Y-6878256D01*
X5063480Y-6891122D01*
X5024392Y-6912015D01*
X4990132Y-6940132D01*
X4962015Y-6974392D01*
X4941122Y-7013480D01*
X4928256Y-7055892D01*
X4923912Y-7100000D01*
X2365771Y-7100000D01*
X2375378Y-7051708D01*
X2375378Y-6948292D01*
X2355202Y-6846863D01*
X2315627Y-6751319D01*
X2258172Y-6665332D01*
X2185046Y-6592206D01*
X2099059Y-6534751D01*
X2003515Y-6495176D01*
X1902086Y-6475000D01*
X1798670Y-6475000D01*
X1697241Y-6495176D01*
X1601697Y-6534751D01*
X1515710Y-6592206D01*
X1442584Y-6665332D01*
X1439465Y-6670000D01*
X1231336Y-6670000D01*
X1208171Y-6635332D01*
X1135045Y-6562206D01*
X1049058Y-6504751D01*
X953514Y-6465176D01*
X852085Y-6445000D01*
X748669Y-6445000D01*
X647240Y-6465176D01*
X551696Y-6504751D01*
X465709Y-6562206D01*
X392583Y-6635332D01*
X335128Y-6721319D01*
X295553Y-6816863D01*
X275377Y-6918292D01*
X275224Y-6918292D01*
X275008Y-275000D01*
X11047216Y-275000D01*
X10806170Y-436062D01*
G04 #@! TA.AperFunction,Conductor*
D17*
G36*
X10806170Y-436062D02*
G01*
X10436062Y-806170D01*
X10145270Y-1241371D01*
X9944969Y-1724940D01*
X9842857Y-2238294D01*
X9842857Y-2761706D01*
X9944969Y-3275060D01*
X10145270Y-3758629D01*
X10436062Y-4193830D01*
X10806170Y-4563938D01*
X11241371Y-4854730D01*
X11724940Y-5055031D01*
X12238294Y-5157143D01*
X12761706Y-5157143D01*
X13275060Y-5055031D01*
X13758629Y-4854730D01*
X14193830Y-4563938D01*
X14563938Y-4193830D01*
X14725001Y-3952783D01*
X14725000Y-10238019D01*
X14389854Y-10225423D01*
X14364961Y-10226922D01*
X14340078Y-10228073D01*
X14336283Y-10228650D01*
X14336279Y-10228650D01*
X13950151Y-10290135D01*
X13931538Y-10295000D01*
X11694264Y-10295000D01*
X10697553Y-9298290D01*
X10688158Y-9286842D01*
X10642477Y-9249353D01*
X10590360Y-9221496D01*
X10533810Y-9204341D01*
X10489733Y-9200000D01*
X10489723Y-9200000D01*
X10475000Y-9198550D01*
X10460277Y-9200000D01*
X9901088Y-9200000D01*
X9901088Y-9100000D01*
X9896744Y-9055892D01*
X9883878Y-9013480D01*
X9862985Y-8974392D01*
X9834868Y-8940132D01*
X9800608Y-8912015D01*
X9761520Y-8891122D01*
X9719108Y-8878256D01*
X9675000Y-8873912D01*
X7675000Y-8873912D01*
X7630892Y-8878256D01*
X7588480Y-8891122D01*
X7549392Y-8912015D01*
X7515132Y-8940132D01*
X7487015Y-8974392D01*
X7466122Y-9013480D01*
X7453256Y-9055892D01*
X7448912Y-9100000D01*
X7448912Y-9150000D01*
X7376088Y-9150000D01*
X7376088Y-9100000D01*
X7371744Y-9055892D01*
X7358878Y-9013480D01*
X7337985Y-8974392D01*
X7309868Y-8940132D01*
X7275608Y-8912015D01*
X7236520Y-8891122D01*
X7194108Y-8878256D01*
X7150000Y-8873912D01*
X5150000Y-8873912D01*
X5105892Y-8878256D01*
X5063480Y-8891122D01*
X5024392Y-8912015D01*
X4990132Y-8940132D01*
X4962015Y-8974392D01*
X4941122Y-9013480D01*
X4928256Y-9055892D01*
X4923912Y-9100000D01*
X4923912Y-9900000D01*
X4928256Y-9944108D01*
X4941122Y-9986520D01*
X4962015Y-10025608D01*
X4990132Y-10059868D01*
X5024392Y-10087985D01*
X5063480Y-10108878D01*
X5105892Y-10121744D01*
X5150000Y-10126088D01*
X7150000Y-10126088D01*
X7194108Y-10121744D01*
X7236520Y-10108878D01*
X7275608Y-10087985D01*
X7309868Y-10059868D01*
X7337985Y-10025608D01*
X7358878Y-9986520D01*
X7371744Y-9944108D01*
X7376088Y-9900000D01*
X7376088Y-9850000D01*
X7448912Y-9850000D01*
X7448912Y-9900000D01*
X7453256Y-9944108D01*
X7466122Y-9986520D01*
X7487015Y-10025608D01*
X7515132Y-10059868D01*
X7549392Y-10087985D01*
X7588480Y-10108878D01*
X7630892Y-10121744D01*
X7675000Y-10126088D01*
X9675000Y-10126088D01*
X9719108Y-10121744D01*
X9761520Y-10108878D01*
X9800608Y-10087985D01*
X9834868Y-10059868D01*
X9862985Y-10025608D01*
X9883878Y-9986520D01*
X9896744Y-9944108D01*
X9901088Y-9900000D01*
X9901088Y-9800000D01*
X10350737Y-9800000D01*
X10845737Y-10295000D01*
X275333Y-10295000D01*
X275224Y-6918292D01*
X275377Y-6918292D01*
X275377Y-7021708D01*
X295553Y-7123137D01*
X335128Y-7218681D01*
X392583Y-7304668D01*
X465709Y-7377794D01*
X551696Y-7435249D01*
X647240Y-7474824D01*
X748669Y-7495000D01*
X852085Y-7495000D01*
X953514Y-7474824D01*
X1049058Y-7435249D01*
X1135045Y-7377794D01*
X1208171Y-7304668D01*
X1231336Y-7270000D01*
X1399374Y-7270000D01*
X1442584Y-7334668D01*
X1515710Y-7407794D01*
X1601697Y-7465249D01*
X1697241Y-7504824D01*
X1798670Y-7525000D01*
X1902086Y-7525000D01*
X2003515Y-7504824D01*
X2099059Y-7465249D01*
X2185046Y-7407794D01*
X2258172Y-7334668D01*
X2315627Y-7248681D01*
X2355202Y-7153137D01*
X2365771Y-7100000D01*
X4923912Y-7100000D01*
X4923912Y-7900000D01*
X4928256Y-7944108D01*
X4941122Y-7986520D01*
X4962015Y-8025608D01*
X4990132Y-8059868D01*
X5024392Y-8087985D01*
X5063480Y-8108878D01*
X5105892Y-8121744D01*
X5150000Y-8126088D01*
X7150000Y-8126088D01*
X7194108Y-8121744D01*
X7236520Y-8108878D01*
X7275608Y-8087985D01*
X7309868Y-8059868D01*
X7337985Y-8025608D01*
X7358878Y-7986520D01*
X7371744Y-7944108D01*
X7376088Y-7900000D01*
X7376088Y-7850000D01*
X7448912Y-7850000D01*
X7448912Y-7900000D01*
X7453256Y-7944108D01*
X7466122Y-7986520D01*
X7487015Y-8025608D01*
X7515132Y-8059868D01*
X7549392Y-8087985D01*
X7588480Y-8108878D01*
X7630892Y-8121744D01*
X7675000Y-8126088D01*
X9675000Y-8126088D01*
X9719108Y-8121744D01*
X9761520Y-8108878D01*
X9800608Y-8087985D01*
X9834868Y-8059868D01*
X9862985Y-8025608D01*
X9883878Y-7986520D01*
X9896744Y-7944108D01*
X9901088Y-7900000D01*
X9901088Y-7100000D01*
X9896744Y-7055892D01*
X9883878Y-7013480D01*
X9862985Y-6974392D01*
X9834868Y-6940132D01*
X9800608Y-6912015D01*
X9761520Y-6891122D01*
X9719108Y-6878256D01*
X9675000Y-6873912D01*
X7675000Y-6873912D01*
X7630892Y-6878256D01*
X7588480Y-6891122D01*
X7549392Y-6912015D01*
X7515132Y-6940132D01*
X7487015Y-6974392D01*
X7466122Y-7013480D01*
X7453256Y-7055892D01*
X7448912Y-7100000D01*
X7448912Y-7150000D01*
X7376088Y-7150000D01*
X7376088Y-7100000D01*
X7371744Y-7055892D01*
X7358878Y-7013480D01*
X7337985Y-6974392D01*
X7309868Y-6940132D01*
X7275608Y-6912015D01*
X7236520Y-6891122D01*
X7194108Y-6878256D01*
X7150000Y-6873912D01*
X5150000Y-6873912D01*
X5105892Y-6878256D01*
X5063480Y-6891122D01*
X5024392Y-6912015D01*
X4990132Y-6940132D01*
X4962015Y-6974392D01*
X4941122Y-7013480D01*
X4928256Y-7055892D01*
X4923912Y-7100000D01*
X2365771Y-7100000D01*
X2375378Y-7051708D01*
X2375378Y-6948292D01*
X2355202Y-6846863D01*
X2315627Y-6751319D01*
X2258172Y-6665332D01*
X2185046Y-6592206D01*
X2099059Y-6534751D01*
X2003515Y-6495176D01*
X1902086Y-6475000D01*
X1798670Y-6475000D01*
X1697241Y-6495176D01*
X1601697Y-6534751D01*
X1515710Y-6592206D01*
X1442584Y-6665332D01*
X1439465Y-6670000D01*
X1231336Y-6670000D01*
X1208171Y-6635332D01*
X1135045Y-6562206D01*
X1049058Y-6504751D01*
X953514Y-6465176D01*
X852085Y-6445000D01*
X748669Y-6445000D01*
X647240Y-6465176D01*
X551696Y-6504751D01*
X465709Y-6562206D01*
X392583Y-6635332D01*
X335128Y-6721319D01*
X295553Y-6816863D01*
X275377Y-6918292D01*
X275224Y-6918292D01*
X275008Y-275000D01*
X11047216Y-275000D01*
X10806170Y-436062D01*
G37*
G04 #@! TD.AperFunction*
M02*
