G04 #@! TF.GenerationSoftware,KiCad,Pcbnew,5.1.10-88a1d61d58~90~ubuntu20.04.1*
G04 #@! TF.CreationDate,2021-10-26T15:32:18+01:00*
G04 #@! TF.ProjectId,THP,5448502e-6b69-4636-9164-5f7063625858,rev?*
G04 #@! TF.SameCoordinates,Original*
G04 #@! TF.FileFunction,Other,ECO2*
%FSLAX46Y46*%
G04 Gerber Fmt 4.6, Leading zero omitted, Abs format (unit mm)*
G04 Created by KiCad (PCBNEW 5.1.10-88a1d61d58~90~ubuntu20.04.1) date 2021-10-26 15:32:18*
%MOMM*%
%LPD*%
G01*
G04 APERTURE LIST*
%ADD10C,0.075000*%
G04 APERTURE END LIST*
D10*
X3100000Y-4985714D02*
X3100000Y-5200000D01*
X3085714Y-5242857D01*
X3057142Y-5271428D01*
X3014285Y-5285714D01*
X2985714Y-5285714D01*
X3228571Y-5014285D02*
X3242857Y-5000000D01*
X3271428Y-4985714D01*
X3342857Y-4985714D01*
X3371428Y-5000000D01*
X3385714Y-5014285D01*
X3400000Y-5042857D01*
X3400000Y-5071428D01*
X3385714Y-5114285D01*
X3214285Y-5285714D01*
X3400000Y-5285714D01*
X2061428Y-19235714D02*
X2061428Y-19478571D01*
X2075714Y-19507142D01*
X2090000Y-19521428D01*
X2118571Y-19535714D01*
X2175714Y-19535714D01*
X2204285Y-19521428D01*
X2218571Y-19507142D01*
X2232857Y-19478571D01*
X2232857Y-19235714D01*
X2504285Y-19335714D02*
X2504285Y-19535714D01*
X2432857Y-19221428D02*
X2361428Y-19435714D01*
X2547142Y-19435714D01*
X6324440Y-16166514D02*
X6224440Y-16023657D01*
X6153011Y-16166514D02*
X6153011Y-15866514D01*
X6267297Y-15866514D01*
X6295868Y-15880800D01*
X6310154Y-15895085D01*
X6324440Y-15923657D01*
X6324440Y-15966514D01*
X6310154Y-15995085D01*
X6295868Y-16009371D01*
X6267297Y-16023657D01*
X6153011Y-16023657D01*
X6581582Y-15866514D02*
X6524440Y-15866514D01*
X6495868Y-15880800D01*
X6481582Y-15895085D01*
X6453011Y-15937942D01*
X6438725Y-15995085D01*
X6438725Y-16109371D01*
X6453011Y-16137942D01*
X6467297Y-16152228D01*
X6495868Y-16166514D01*
X6553011Y-16166514D01*
X6581582Y-16152228D01*
X6595868Y-16137942D01*
X6610154Y-16109371D01*
X6610154Y-16037942D01*
X6595868Y-16009371D01*
X6581582Y-15995085D01*
X6553011Y-15980800D01*
X6495868Y-15980800D01*
X6467297Y-15995085D01*
X6453011Y-16009371D01*
X6438725Y-16037942D01*
X12246428Y-25410714D02*
X12246428Y-25653571D01*
X12260714Y-25682142D01*
X12275000Y-25696428D01*
X12303571Y-25710714D01*
X12360714Y-25710714D01*
X12389285Y-25696428D01*
X12403571Y-25682142D01*
X12417857Y-25653571D01*
X12417857Y-25410714D01*
X12717857Y-25710714D02*
X12546428Y-25710714D01*
X12632142Y-25710714D02*
X12632142Y-25410714D01*
X12603571Y-25453571D01*
X12575000Y-25482142D01*
X12546428Y-25496428D01*
X3887300Y-19407942D02*
X3873014Y-19422228D01*
X3830157Y-19436514D01*
X3801585Y-19436514D01*
X3758728Y-19422228D01*
X3730157Y-19393657D01*
X3715871Y-19365085D01*
X3701585Y-19307942D01*
X3701585Y-19265085D01*
X3715871Y-19207942D01*
X3730157Y-19179371D01*
X3758728Y-19150800D01*
X3801585Y-19136514D01*
X3830157Y-19136514D01*
X3873014Y-19150800D01*
X3887300Y-19165085D01*
X4144442Y-19236514D02*
X4144442Y-19436514D01*
X4073014Y-19122228D02*
X4001585Y-19336514D01*
X4187300Y-19336514D01*
X7570000Y-285142D02*
X7555714Y-299428D01*
X7512857Y-313714D01*
X7484285Y-313714D01*
X7441428Y-299428D01*
X7412857Y-270857D01*
X7398571Y-242285D01*
X7384285Y-185142D01*
X7384285Y-142285D01*
X7398571Y-85142D01*
X7412857Y-56571D01*
X7441428Y-28000D01*
X7484285Y-13714D01*
X7512857Y-13714D01*
X7555714Y-28000D01*
X7570000Y-42285D01*
X7841428Y-13714D02*
X7698571Y-13714D01*
X7684285Y-156571D01*
X7698571Y-142285D01*
X7727142Y-128000D01*
X7798571Y-128000D01*
X7827142Y-142285D01*
X7841428Y-156571D01*
X7855714Y-185142D01*
X7855714Y-256571D01*
X7841428Y-285142D01*
X7827142Y-299428D01*
X7798571Y-313714D01*
X7727142Y-313714D01*
X7698571Y-299428D01*
X7684285Y-285142D01*
X3035714Y-2528571D02*
X3278571Y-2528571D01*
X3307142Y-2514285D01*
X3321428Y-2500000D01*
X3335714Y-2471428D01*
X3335714Y-2414285D01*
X3321428Y-2385714D01*
X3307142Y-2371428D01*
X3278571Y-2357142D01*
X3035714Y-2357142D01*
X3035714Y-2242857D02*
X3035714Y-2057142D01*
X3150000Y-2157142D01*
X3150000Y-2114285D01*
X3164285Y-2085714D01*
X3178571Y-2071428D01*
X3207142Y-2057142D01*
X3278571Y-2057142D01*
X3307142Y-2071428D01*
X3321428Y-2085714D01*
X3335714Y-2114285D01*
X3335714Y-2200000D01*
X3321428Y-2228571D01*
X3307142Y-2242857D01*
X2271428Y-19385714D02*
X2271428Y-19085714D01*
X2271428Y-19228571D02*
X2442857Y-19228571D01*
X2442857Y-19385714D02*
X2442857Y-19085714D01*
X2571428Y-19114285D02*
X2585714Y-19100000D01*
X2614285Y-19085714D01*
X2685714Y-19085714D01*
X2714285Y-19100000D01*
X2728571Y-19114285D01*
X2742857Y-19142857D01*
X2742857Y-19171428D01*
X2728571Y-19214285D01*
X2557142Y-19385714D01*
X2742857Y-19385714D01*
X12271428Y614285D02*
X12271428Y914285D01*
X12271428Y771428D02*
X12442857Y771428D01*
X12442857Y614285D02*
X12442857Y914285D01*
X12742857Y614285D02*
X12571428Y614285D01*
X12657142Y614285D02*
X12657142Y914285D01*
X12628571Y871428D01*
X12600000Y842857D01*
X12571428Y828571D01*
X4370714Y-8760000D02*
X4227857Y-8860000D01*
X4370714Y-8931428D02*
X4070714Y-8931428D01*
X4070714Y-8817142D01*
X4085000Y-8788571D01*
X4099285Y-8774285D01*
X4127857Y-8760000D01*
X4170714Y-8760000D01*
X4199285Y-8774285D01*
X4213571Y-8788571D01*
X4227857Y-8817142D01*
X4227857Y-8931428D01*
X4070714Y-8660000D02*
X4070714Y-8474285D01*
X4185000Y-8574285D01*
X4185000Y-8531428D01*
X4199285Y-8502857D01*
X4213571Y-8488571D01*
X4242142Y-8474285D01*
X4313571Y-8474285D01*
X4342142Y-8488571D01*
X4356428Y-8502857D01*
X4370714Y-8531428D01*
X4370714Y-8617142D01*
X4356428Y-8645714D01*
X4342142Y-8660000D01*
X4380714Y-7730000D02*
X4237857Y-7830000D01*
X4380714Y-7901428D02*
X4080714Y-7901428D01*
X4080714Y-7787142D01*
X4095000Y-7758571D01*
X4109285Y-7744285D01*
X4137857Y-7730000D01*
X4180714Y-7730000D01*
X4209285Y-7744285D01*
X4223571Y-7758571D01*
X4237857Y-7787142D01*
X4237857Y-7901428D01*
X4109285Y-7615714D02*
X4095000Y-7601428D01*
X4080714Y-7572857D01*
X4080714Y-7501428D01*
X4095000Y-7472857D01*
X4109285Y-7458571D01*
X4137857Y-7444285D01*
X4166428Y-7444285D01*
X4209285Y-7458571D01*
X4380714Y-7630000D01*
X4380714Y-7444285D01*
X4600000Y-16185714D02*
X4500000Y-16042857D01*
X4428571Y-16185714D02*
X4428571Y-15885714D01*
X4542857Y-15885714D01*
X4571428Y-15900000D01*
X4585714Y-15914285D01*
X4600000Y-15942857D01*
X4600000Y-15985714D01*
X4585714Y-16014285D01*
X4571428Y-16028571D01*
X4542857Y-16042857D01*
X4428571Y-16042857D01*
X4885714Y-16185714D02*
X4714285Y-16185714D01*
X4800000Y-16185714D02*
X4800000Y-15885714D01*
X4771428Y-15928571D01*
X4742857Y-15957142D01*
X4714285Y-15971428D01*
X13230100Y-19328334D02*
X13230100Y-19542620D01*
X13215814Y-19585477D01*
X13187242Y-19614048D01*
X13144385Y-19628334D01*
X13115814Y-19628334D01*
X13530100Y-19628334D02*
X13358671Y-19628334D01*
X13444385Y-19628334D02*
X13444385Y-19328334D01*
X13415814Y-19371191D01*
X13387242Y-19399762D01*
X13358671Y-19414048D01*
X13920000Y-21162714D02*
X13820000Y-21019857D01*
X13748571Y-21162714D02*
X13748571Y-20862714D01*
X13862857Y-20862714D01*
X13891428Y-20877000D01*
X13905714Y-20891285D01*
X13920000Y-20919857D01*
X13920000Y-20962714D01*
X13905714Y-20991285D01*
X13891428Y-21005571D01*
X13862857Y-21019857D01*
X13748571Y-21019857D01*
X14177142Y-20962714D02*
X14177142Y-21162714D01*
X14105714Y-20848428D02*
X14034285Y-21062714D01*
X14220000Y-21062714D01*
X9231428Y-15825714D02*
X9231428Y-16068571D01*
X9245714Y-16097142D01*
X9260000Y-16111428D01*
X9288571Y-16125714D01*
X9345714Y-16125714D01*
X9374285Y-16111428D01*
X9388571Y-16097142D01*
X9402857Y-16068571D01*
X9402857Y-15825714D01*
X9531428Y-15854285D02*
X9545714Y-15840000D01*
X9574285Y-15825714D01*
X9645714Y-15825714D01*
X9674285Y-15840000D01*
X9688571Y-15854285D01*
X9702857Y-15882857D01*
X9702857Y-15911428D01*
X9688571Y-15954285D01*
X9517142Y-16125714D01*
X9702857Y-16125714D01*
X13920000Y-23020142D02*
X13905714Y-23034428D01*
X13862857Y-23048714D01*
X13834285Y-23048714D01*
X13791428Y-23034428D01*
X13762857Y-23005857D01*
X13748571Y-22977285D01*
X13734285Y-22920142D01*
X13734285Y-22877285D01*
X13748571Y-22820142D01*
X13762857Y-22791571D01*
X13791428Y-22763000D01*
X13834285Y-22748714D01*
X13862857Y-22748714D01*
X13905714Y-22763000D01*
X13920000Y-22777285D01*
X14020000Y-22748714D02*
X14205714Y-22748714D01*
X14105714Y-22863000D01*
X14148571Y-22863000D01*
X14177142Y-22877285D01*
X14191428Y-22891571D01*
X14205714Y-22920142D01*
X14205714Y-22991571D01*
X14191428Y-23020142D01*
X14177142Y-23034428D01*
X14148571Y-23048714D01*
X14062857Y-23048714D01*
X14034285Y-23034428D01*
X14020000Y-23020142D01*
X11617142Y-20225000D02*
X11631428Y-20239285D01*
X11645714Y-20282142D01*
X11645714Y-20310714D01*
X11631428Y-20353571D01*
X11602857Y-20382142D01*
X11574285Y-20396428D01*
X11517142Y-20410714D01*
X11474285Y-20410714D01*
X11417142Y-20396428D01*
X11388571Y-20382142D01*
X11360000Y-20353571D01*
X11345714Y-20310714D01*
X11345714Y-20282142D01*
X11360000Y-20239285D01*
X11374285Y-20225000D01*
X11645714Y-19939285D02*
X11645714Y-20110714D01*
X11645714Y-20025000D02*
X11345714Y-20025000D01*
X11388571Y-20053571D01*
X11417142Y-20082142D01*
X11431428Y-20110714D01*
X4580000Y-13985714D02*
X4480000Y-13842857D01*
X4408571Y-13985714D02*
X4408571Y-13685714D01*
X4522857Y-13685714D01*
X4551428Y-13700000D01*
X4565714Y-13714285D01*
X4580000Y-13742857D01*
X4580000Y-13785714D01*
X4565714Y-13814285D01*
X4551428Y-13828571D01*
X4522857Y-13842857D01*
X4408571Y-13842857D01*
X4851428Y-13685714D02*
X4708571Y-13685714D01*
X4694285Y-13828571D01*
X4708571Y-13814285D01*
X4737142Y-13800000D01*
X4808571Y-13800000D01*
X4837142Y-13814285D01*
X4851428Y-13828571D01*
X4865714Y-13857142D01*
X4865714Y-13928571D01*
X4851428Y-13957142D01*
X4837142Y-13971428D01*
X4808571Y-13985714D01*
X4737142Y-13985714D01*
X4708571Y-13971428D01*
X4694285Y-13957142D01*
X10050000Y-21707142D02*
X10035714Y-21721428D01*
X9992857Y-21735714D01*
X9964285Y-21735714D01*
X9921428Y-21721428D01*
X9892857Y-21692857D01*
X9878571Y-21664285D01*
X9864285Y-21607142D01*
X9864285Y-21564285D01*
X9878571Y-21507142D01*
X9892857Y-21478571D01*
X9921428Y-21450000D01*
X9964285Y-21435714D01*
X9992857Y-21435714D01*
X10035714Y-21450000D01*
X10050000Y-21464285D01*
X10164285Y-21464285D02*
X10178571Y-21450000D01*
X10207142Y-21435714D01*
X10278571Y-21435714D01*
X10307142Y-21450000D01*
X10321428Y-21464285D01*
X10335714Y-21492857D01*
X10335714Y-21521428D01*
X10321428Y-21564285D01*
X10150000Y-21735714D01*
X10335714Y-21735714D01*
M02*
