M48
; DRILL file {KiCad 5.1.10-88a1d61d58~90~ubuntu20.04.1} date Tue Oct 26 15:32:17 2021
; FORMAT={-:-/ absolute / metric / decimal}
; #@! TF.CreationDate,2021-10-26T15:32:17+01:00
; #@! TF.GenerationSoftware,Kicad,Pcbnew,5.1.10-88a1d61d58~90~ubuntu20.04.1
; #@! TF.FileFunction,Plated,1,2,PTH
FMAT,2
METRIC
T1C0.300
%
G90
G05
T1
X0.8Y-6.97
X0.86Y-2.24
X0.95Y-16.49
X1.85Y-7.0
X2.575Y-19.375
X3.04Y-16.43
X3.08Y-0.77
X3.41Y-3.34
X3.82Y-14.23
X4.33Y-4.3
X4.46Y-7.04
X4.98Y-20.55
X4.99Y-5.41
X5.23Y-1.96
X5.25Y-3.09
X5.61Y-8.52
X5.67Y-4.31
X5.71Y-1.33
X5.72Y-2.51
X5.74Y-24.21
X6.61Y-5.37
X7.25Y-4.29
X7.39Y-24.17
X7.43Y-16.58
X8.23Y-19.24
X8.24Y-22.92
X8.25Y-20.68
X8.46Y-14.58
X8.62Y-1.26
X8.62Y-8.55
X8.8Y-16.49
X8.83Y-5.33
X8.99Y-24.14
X9.07Y-2.42
X9.24Y-21.75
X10.13Y-20.74
X10.2Y-10.08
X10.68Y-14.723
X11.16Y-7.58
X11.176Y-15.494
X11.218Y-18.433
X11.43Y-23.876
X11.684Y-17.272
X11.81Y-16.16
X12.47Y-23.98
X13.01Y-15.28
X13.06Y-7.61
X13.95Y-22.775
X14.15Y-15.75
T0
M30
