G04 #@! TF.GenerationSoftware,KiCad,Pcbnew,5.1.10-88a1d61d58~90~ubuntu20.04.1*
G04 #@! TF.CreationDate,2021-10-26T15:32:18+01:00*
G04 #@! TF.ProjectId,THP,5448502e-6b69-4636-9164-5f7063625858,rev?*
G04 #@! TF.SameCoordinates,Original*
G04 #@! TF.FileFunction,Paste,Top*
G04 #@! TF.FilePolarity,Positive*
%FSLAX46Y46*%
G04 Gerber Fmt 4.6, Leading zero omitted, Abs format (unit mm)*
G04 Created by KiCad (PCBNEW 5.1.10-88a1d61d58~90~ubuntu20.04.1) date 2021-10-26 15:32:18*
%MOMM*%
%LPD*%
G01*
G04 APERTURE LIST*
%ADD10R,0.650000X1.060000*%
%ADD11R,0.500000X0.350000*%
%ADD12R,1.450000X0.450000*%
G04 APERTURE END LIST*
D10*
X3240000Y-15400000D03*
X2290000Y-15400000D03*
X1340000Y-15400000D03*
X1340000Y-17600000D03*
X3240000Y-17600000D03*
X2290000Y-17600000D03*
G36*
G01*
X6220000Y-15807500D02*
X6220000Y-16152500D01*
G75*
G02*
X6072500Y-16300000I-147500J0D01*
G01*
X5777500Y-16300000D01*
G75*
G02*
X5630000Y-16152500I0J147500D01*
G01*
X5630000Y-15807500D01*
G75*
G02*
X5777500Y-15660000I147500J0D01*
G01*
X6072500Y-15660000D01*
G75*
G02*
X6220000Y-15807500I0J-147500D01*
G01*
G37*
G36*
G01*
X7190000Y-15807500D02*
X7190000Y-16152500D01*
G75*
G02*
X7042500Y-16300000I-147500J0D01*
G01*
X6747500Y-16300000D01*
G75*
G02*
X6600000Y-16152500I0J147500D01*
G01*
X6600000Y-15807500D01*
G75*
G02*
X6747500Y-15660000I147500J0D01*
G01*
X7042500Y-15660000D01*
G75*
G02*
X7190000Y-15807500I0J-147500D01*
G01*
G37*
G36*
G01*
X3760000Y-19077500D02*
X3760000Y-19422500D01*
G75*
G02*
X3612500Y-19570000I-147500J0D01*
G01*
X3317500Y-19570000D01*
G75*
G02*
X3170000Y-19422500I0J147500D01*
G01*
X3170000Y-19077500D01*
G75*
G02*
X3317500Y-18930000I147500J0D01*
G01*
X3612500Y-18930000D01*
G75*
G02*
X3760000Y-19077500I0J-147500D01*
G01*
G37*
G36*
G01*
X4730000Y-19077500D02*
X4730000Y-19422500D01*
G75*
G02*
X4582500Y-19570000I-147500J0D01*
G01*
X4287500Y-19570000D01*
G75*
G02*
X4140000Y-19422500I0J147500D01*
G01*
X4140000Y-19077500D01*
G75*
G02*
X4287500Y-18930000I147500J0D01*
G01*
X4582500Y-18930000D01*
G75*
G02*
X4730000Y-19077500I0J-147500D01*
G01*
G37*
G36*
G01*
X7792500Y-1588000D02*
X7447500Y-1588000D01*
G75*
G02*
X7300000Y-1440500I0J147500D01*
G01*
X7300000Y-1145500D01*
G75*
G02*
X7447500Y-998000I147500J0D01*
G01*
X7792500Y-998000D01*
G75*
G02*
X7940000Y-1145500I0J-147500D01*
G01*
X7940000Y-1440500D01*
G75*
G02*
X7792500Y-1588000I-147500J0D01*
G01*
G37*
G36*
G01*
X7792500Y-2558000D02*
X7447500Y-2558000D01*
G75*
G02*
X7300000Y-2410500I0J147500D01*
G01*
X7300000Y-2115500D01*
G75*
G02*
X7447500Y-1968000I147500J0D01*
G01*
X7792500Y-1968000D01*
G75*
G02*
X7940000Y-2115500I0J-147500D01*
G01*
X7940000Y-2410500D01*
G75*
G02*
X7792500Y-2558000I-147500J0D01*
G01*
G37*
D11*
X4475000Y-3275000D03*
X4475000Y-2625000D03*
X4475000Y-1975000D03*
X4475000Y-1325000D03*
X6524999Y-1325000D03*
X6524999Y-1975000D03*
X6524999Y-2625000D03*
X6524999Y-3275000D03*
G36*
G01*
X1755000Y-8882500D02*
X1755000Y-8537500D01*
G75*
G02*
X1902500Y-8390000I147500J0D01*
G01*
X2197500Y-8390000D01*
G75*
G02*
X2345000Y-8537500I0J-147500D01*
G01*
X2345000Y-8882500D01*
G75*
G02*
X2197500Y-9030000I-147500J0D01*
G01*
X1902500Y-9030000D01*
G75*
G02*
X1755000Y-8882500I0J147500D01*
G01*
G37*
G36*
G01*
X2725000Y-8882500D02*
X2725000Y-8537500D01*
G75*
G02*
X2872500Y-8390000I147500J0D01*
G01*
X3167500Y-8390000D01*
G75*
G02*
X3315000Y-8537500I0J-147500D01*
G01*
X3315000Y-8882500D01*
G75*
G02*
X3167500Y-9030000I-147500J0D01*
G01*
X2872500Y-9030000D01*
G75*
G02*
X2725000Y-8882500I0J147500D01*
G01*
G37*
G36*
G01*
X1765000Y-7852500D02*
X1765000Y-7507500D01*
G75*
G02*
X1912500Y-7360000I147500J0D01*
G01*
X2207500Y-7360000D01*
G75*
G02*
X2355000Y-7507500I0J-147500D01*
G01*
X2355000Y-7852500D01*
G75*
G02*
X2207500Y-8000000I-147500J0D01*
G01*
X1912500Y-8000000D01*
G75*
G02*
X1765000Y-7852500I0J147500D01*
G01*
G37*
G36*
G01*
X2735000Y-7852500D02*
X2735000Y-7507500D01*
G75*
G02*
X2882500Y-7360000I147500J0D01*
G01*
X3177500Y-7360000D01*
G75*
G02*
X3325000Y-7507500I0J-147500D01*
G01*
X3325000Y-7852500D01*
G75*
G02*
X3177500Y-8000000I-147500J0D01*
G01*
X2882500Y-8000000D01*
G75*
G02*
X2735000Y-7852500I0J147500D01*
G01*
G37*
G36*
G01*
X4822500Y-17560000D02*
X4477500Y-17560000D01*
G75*
G02*
X4330000Y-17412500I0J147500D01*
G01*
X4330000Y-17117500D01*
G75*
G02*
X4477500Y-16970000I147500J0D01*
G01*
X4822500Y-16970000D01*
G75*
G02*
X4970000Y-17117500I0J-147500D01*
G01*
X4970000Y-17412500D01*
G75*
G02*
X4822500Y-17560000I-147500J0D01*
G01*
G37*
G36*
G01*
X4822500Y-18530000D02*
X4477500Y-18530000D01*
G75*
G02*
X4330000Y-18382500I0J147500D01*
G01*
X4330000Y-18087500D01*
G75*
G02*
X4477500Y-17940000I147500J0D01*
G01*
X4822500Y-17940000D01*
G75*
G02*
X4970000Y-18087500I0J-147500D01*
G01*
X4970000Y-18382500D01*
G75*
G02*
X4822500Y-18530000I-147500J0D01*
G01*
G37*
G36*
G01*
X13797500Y-19517000D02*
X14142500Y-19517000D01*
G75*
G02*
X14290000Y-19664500I0J-147500D01*
G01*
X14290000Y-19959500D01*
G75*
G02*
X14142500Y-20107000I-147500J0D01*
G01*
X13797500Y-20107000D01*
G75*
G02*
X13650000Y-19959500I0J147500D01*
G01*
X13650000Y-19664500D01*
G75*
G02*
X13797500Y-19517000I147500J0D01*
G01*
G37*
G36*
G01*
X13797500Y-18547000D02*
X14142500Y-18547000D01*
G75*
G02*
X14290000Y-18694500I0J-147500D01*
G01*
X14290000Y-18989500D01*
G75*
G02*
X14142500Y-19137000I-147500J0D01*
G01*
X13797500Y-19137000D01*
G75*
G02*
X13650000Y-18989500I0J147500D01*
G01*
X13650000Y-18694500D01*
G75*
G02*
X13797500Y-18547000I147500J0D01*
G01*
G37*
D12*
X12410000Y-17365000D03*
X12410000Y-18015000D03*
X12410000Y-18665000D03*
X12410000Y-19315000D03*
X12410000Y-19965000D03*
X12410000Y-20615000D03*
X12410000Y-21265000D03*
X12410000Y-21915000D03*
X12410000Y-22565000D03*
X12410000Y-23215000D03*
X6510000Y-23215000D03*
X6510000Y-22565000D03*
X6510000Y-21915000D03*
X6510000Y-21265000D03*
X6510000Y-20615000D03*
X6510000Y-19965000D03*
X6510000Y-19315000D03*
X6510000Y-18665000D03*
X6510000Y-18015000D03*
X6510000Y-17365000D03*
G36*
G01*
X13797500Y-21503000D02*
X14142500Y-21503000D01*
G75*
G02*
X14290000Y-21650500I0J-147500D01*
G01*
X14290000Y-21945500D01*
G75*
G02*
X14142500Y-22093000I-147500J0D01*
G01*
X13797500Y-22093000D01*
G75*
G02*
X13650000Y-21945500I0J147500D01*
G01*
X13650000Y-21650500D01*
G75*
G02*
X13797500Y-21503000I147500J0D01*
G01*
G37*
G36*
G01*
X13797500Y-20533000D02*
X14142500Y-20533000D01*
G75*
G02*
X14290000Y-20680500I0J-147500D01*
G01*
X14290000Y-20975500D01*
G75*
G02*
X14142500Y-21123000I-147500J0D01*
G01*
X13797500Y-21123000D01*
G75*
G02*
X13650000Y-20975500I0J147500D01*
G01*
X13650000Y-20680500D01*
G75*
G02*
X13797500Y-20533000I147500J0D01*
G01*
G37*
G36*
G01*
X4802500Y-15360000D02*
X4457500Y-15360000D01*
G75*
G02*
X4310000Y-15212500I0J147500D01*
G01*
X4310000Y-14917500D01*
G75*
G02*
X4457500Y-14770000I147500J0D01*
G01*
X4802500Y-14770000D01*
G75*
G02*
X4950000Y-14917500I0J-147500D01*
G01*
X4950000Y-15212500D01*
G75*
G02*
X4802500Y-15360000I-147500J0D01*
G01*
G37*
G36*
G01*
X4802500Y-16330000D02*
X4457500Y-16330000D01*
G75*
G02*
X4310000Y-16182500I0J147500D01*
G01*
X4310000Y-15887500D01*
G75*
G02*
X4457500Y-15740000I147500J0D01*
G01*
X4802500Y-15740000D01*
G75*
G02*
X4950000Y-15887500I0J-147500D01*
G01*
X4950000Y-16182500D01*
G75*
G02*
X4802500Y-16330000I-147500J0D01*
G01*
G37*
M02*
