G04 #@! TF.GenerationSoftware,KiCad,Pcbnew,5.1.10-88a1d61d58~90~ubuntu20.04.1*
G04 #@! TF.CreationDate,2021-10-26T15:32:18+01:00*
G04 #@! TF.ProjectId,THP,5448502e-6b69-4636-9164-5f7063625858,rev?*
G04 #@! TF.SameCoordinates,Original*
G04 #@! TF.FileFunction,Legend,Bot*
G04 #@! TF.FilePolarity,Positive*
%FSLAX46Y46*%
G04 Gerber Fmt 4.6, Leading zero omitted, Abs format (unit mm)*
G04 Created by KiCad (PCBNEW 5.1.10-88a1d61d58~90~ubuntu20.04.1) date 2021-10-26 15:32:18*
%MOMM*%
%LPD*%
G01*
G04 APERTURE LIST*
%ADD10C,0.120000*%
%ADD11C,0.250000*%
G04 APERTURE END LIST*
D10*
X1900000Y-6500000D02*
X3900000Y-6500000D01*
X3900000Y-18500000D02*
X3900000Y-6500000D01*
X1900000Y-18500000D02*
X3900000Y-18500000D01*
X1900000Y-18500000D02*
X1900000Y-6500000D01*
X17237700Y-18650000D02*
X10887700Y-18650000D01*
X17237700Y-6350000D02*
X17237700Y-18650000D01*
X17237700Y-6350000D02*
X10887700Y-6350000D01*
X10887700Y-18650000D02*
X10887700Y-6350000D01*
D11*
X11003332Y-4887194D02*
X11003332Y-5887194D01*
X11003332Y-4934813D02*
X10908094Y-4887194D01*
X10717618Y-4887194D01*
X10622380Y-4934813D01*
X10574760Y-4982432D01*
X10527141Y-5077670D01*
X10527141Y-5363384D01*
X10574760Y-5458622D01*
X10622380Y-5506241D01*
X10717618Y-5553860D01*
X10908094Y-5553860D01*
X11003332Y-5506241D01*
X10098570Y-5553860D02*
X10098570Y-4887194D01*
X10098570Y-5077670D02*
X10050951Y-4982432D01*
X10003332Y-4934813D01*
X9908094Y-4887194D01*
X9812856Y-4887194D01*
X9098570Y-5506241D02*
X9193808Y-5553860D01*
X9384284Y-5553860D01*
X9479522Y-5506241D01*
X9527141Y-5411003D01*
X9527141Y-5030051D01*
X9479522Y-4934813D01*
X9384284Y-4887194D01*
X9193808Y-4887194D01*
X9098570Y-4934813D01*
X9050951Y-5030051D01*
X9050951Y-5125289D01*
X9527141Y-5220527D01*
X8669999Y-5506241D02*
X8574760Y-5553860D01*
X8384284Y-5553860D01*
X8289046Y-5506241D01*
X8241427Y-5411003D01*
X8241427Y-5363384D01*
X8289046Y-5268146D01*
X8384284Y-5220527D01*
X8527141Y-5220527D01*
X8622380Y-5172908D01*
X8669999Y-5077670D01*
X8669999Y-5030051D01*
X8622380Y-4934813D01*
X8527141Y-4887194D01*
X8384284Y-4887194D01*
X8289046Y-4934813D01*
X7860475Y-5506241D02*
X7765237Y-5553860D01*
X7574760Y-5553860D01*
X7479522Y-5506241D01*
X7431903Y-5411003D01*
X7431903Y-5363384D01*
X7479522Y-5268146D01*
X7574760Y-5220527D01*
X7717618Y-5220527D01*
X7812856Y-5172908D01*
X7860475Y-5077670D01*
X7860475Y-5030051D01*
X7812856Y-4934813D01*
X7717618Y-4887194D01*
X7574760Y-4887194D01*
X7479522Y-4934813D01*
X6574760Y-4887194D02*
X6574760Y-5553860D01*
X7003332Y-4887194D02*
X7003332Y-5411003D01*
X6955713Y-5506241D01*
X6860475Y-5553860D01*
X6717618Y-5553860D01*
X6622379Y-5506241D01*
X6574760Y-5458622D01*
X6098570Y-5553860D02*
X6098570Y-4887194D01*
X6098570Y-5077670D02*
X6050951Y-4982432D01*
X6003332Y-4934813D01*
X5908094Y-4887194D01*
X5812856Y-4887194D01*
X5098570Y-5506241D02*
X5193808Y-5553860D01*
X5384284Y-5553860D01*
X5479522Y-5506241D01*
X5527141Y-5411003D01*
X5527141Y-5030051D01*
X5479522Y-4934813D01*
X5384284Y-4887194D01*
X5193808Y-4887194D01*
X5098570Y-4934813D01*
X5050951Y-5030051D01*
X5050951Y-5125289D01*
X5527141Y-5220527D01*
X3955713Y-4887194D02*
X3717618Y-5553860D01*
X3479522Y-4887194D01*
X2908094Y-4553860D02*
X2812856Y-4553860D01*
X2717618Y-4601480D01*
X2669999Y-4649099D01*
X2622379Y-4744337D01*
X2574760Y-4934813D01*
X2574760Y-5172908D01*
X2622379Y-5363384D01*
X2669999Y-5458622D01*
X2717618Y-5506241D01*
X2812856Y-5553860D01*
X2908094Y-5553860D01*
X3003332Y-5506241D01*
X3050951Y-5458622D01*
X3098570Y-5363384D01*
X3146189Y-5172908D01*
X3146189Y-4934813D01*
X3098570Y-4744337D01*
X3050951Y-4649099D01*
X3003332Y-4601480D01*
X2908094Y-4553860D01*
X2146189Y-5458622D02*
X2098570Y-5506241D01*
X2146189Y-5553860D01*
X2193808Y-5506241D01*
X2146189Y-5458622D01*
X2146189Y-5553860D01*
X1146189Y-5553860D02*
X1717618Y-5553860D01*
X1431903Y-5553860D02*
X1431903Y-4553860D01*
X1527141Y-4696718D01*
X1622379Y-4791956D01*
X1717618Y-4839575D01*
X193808Y-5553860D02*
X765237Y-5553860D01*
X479522Y-5553860D02*
X479522Y-4553860D01*
X574760Y-4696718D01*
X669999Y-4791956D01*
X765237Y-4839575D01*
X10255713Y-2753860D02*
X9684284Y-2753860D01*
X9969999Y-3753860D02*
X9969999Y-2753860D01*
X8969999Y-3706241D02*
X9065237Y-3753860D01*
X9255713Y-3753860D01*
X9350951Y-3706241D01*
X9398570Y-3611003D01*
X9398570Y-3230051D01*
X9350951Y-3134813D01*
X9255713Y-3087194D01*
X9065237Y-3087194D01*
X8969999Y-3134813D01*
X8922380Y-3230051D01*
X8922380Y-3325289D01*
X9398570Y-3420527D01*
X8493808Y-3753860D02*
X8493808Y-3087194D01*
X8493808Y-3182432D02*
X8446189Y-3134813D01*
X8350951Y-3087194D01*
X8208094Y-3087194D01*
X8112856Y-3134813D01*
X8065237Y-3230051D01*
X8065237Y-3753860D01*
X8065237Y-3230051D02*
X8017618Y-3134813D01*
X7922380Y-3087194D01*
X7779522Y-3087194D01*
X7684284Y-3134813D01*
X7636665Y-3230051D01*
X7636665Y-3753860D01*
X7160475Y-3087194D02*
X7160475Y-4087194D01*
X7160475Y-3134813D02*
X7065237Y-3087194D01*
X6874760Y-3087194D01*
X6779522Y-3134813D01*
X6731903Y-3182432D01*
X6684284Y-3277670D01*
X6684284Y-3563384D01*
X6731903Y-3658622D01*
X6779522Y-3706241D01*
X6874760Y-3753860D01*
X7065237Y-3753860D01*
X7160475Y-3706241D01*
X6208094Y-3706241D02*
X6208094Y-3753860D01*
X6255713Y-3849099D01*
X6303332Y-3896718D01*
X5017618Y-3753860D02*
X5017618Y-2753860D01*
X4589046Y-3753860D02*
X4589046Y-3230051D01*
X4636665Y-3134813D01*
X4731903Y-3087194D01*
X4874760Y-3087194D01*
X4969999Y-3134813D01*
X5017618Y-3182432D01*
X3684284Y-3087194D02*
X3684284Y-3753860D01*
X4112856Y-3087194D02*
X4112856Y-3611003D01*
X4065237Y-3706241D01*
X3969999Y-3753860D01*
X3827141Y-3753860D01*
X3731903Y-3706241D01*
X3684284Y-3658622D01*
X3208094Y-3753860D02*
X3208094Y-3087194D01*
X3208094Y-3182432D02*
X3160475Y-3134813D01*
X3065237Y-3087194D01*
X2922380Y-3087194D01*
X2827141Y-3134813D01*
X2779522Y-3230051D01*
X2779522Y-3753860D01*
X2779522Y-3230051D02*
X2731903Y-3134813D01*
X2636665Y-3087194D01*
X2493808Y-3087194D01*
X2398570Y-3134813D01*
X2350951Y-3230051D01*
X2350951Y-3753860D01*
X1874760Y-3753860D02*
X1874760Y-3087194D01*
X1874760Y-2753860D02*
X1922380Y-2801480D01*
X1874760Y-2849099D01*
X1827141Y-2801480D01*
X1874760Y-2753860D01*
X1874760Y-2849099D01*
X969999Y-3753860D02*
X969999Y-2753860D01*
X969999Y-3706241D02*
X1065237Y-3753860D01*
X1255713Y-3753860D01*
X1350951Y-3706241D01*
X1398570Y-3658622D01*
X1446189Y-3563384D01*
X1446189Y-3277670D01*
X1398570Y-3182432D01*
X1350951Y-3134813D01*
X1255713Y-3087194D01*
X1065237Y-3087194D01*
X969999Y-3134813D01*
X589046Y-3087194D02*
X350951Y-3753860D01*
X112856Y-3087194D02*
X350951Y-3753860D01*
X446189Y-3991956D01*
X493808Y-4039575D01*
X589046Y-4087194D01*
X-315715Y-3706241D02*
X-315715Y-3753860D01*
X-268096Y-3849099D01*
X-220477Y-3896718D01*
M02*
