G04 #@! TF.GenerationSoftware,KiCad,Pcbnew,5.1.10-88a1d61d58~90~ubuntu20.04.1*
G04 #@! TF.CreationDate,2021-10-26T15:32:18+01:00*
G04 #@! TF.ProjectId,THP,5448502e-6b69-4636-9164-5f7063625858,rev?*
G04 #@! TF.SameCoordinates,Original*
G04 #@! TF.FileFunction,Paste,Bot*
G04 #@! TF.FilePolarity,Positive*
%FSLAX46Y46*%
G04 Gerber Fmt 4.6, Leading zero omitted, Abs format (unit mm)*
G04 Created by KiCad (PCBNEW 5.1.10-88a1d61d58~90~ubuntu20.04.1) date 2021-10-26 15:32:18*
%MOMM*%
%LPD*%
G01*
G04 APERTURE LIST*
%ADD10R,2.000000X0.800000*%
%ADD11R,0.650000X1.060000*%
G04 APERTURE END LIST*
D10*
X6150000Y-7500000D03*
X6150000Y-9500000D03*
X6150000Y-11500000D03*
X6150000Y-13500000D03*
X6150000Y-15500000D03*
X6150000Y-17500000D03*
D11*
X11525000Y-23775000D03*
X13425000Y-23775000D03*
X13425000Y-21575000D03*
X12475000Y-21575000D03*
X11525000Y-21575000D03*
D10*
X8675000Y-17500000D03*
X8675000Y-15500000D03*
X8675000Y-13500000D03*
X8675000Y-11500000D03*
X8675000Y-9500000D03*
X8675000Y-7500000D03*
G36*
G01*
X12920000Y-20002500D02*
X12920000Y-20347500D01*
G75*
G02*
X12772500Y-20495000I-147500J0D01*
G01*
X12477500Y-20495000D01*
G75*
G02*
X12330000Y-20347500I0J147500D01*
G01*
X12330000Y-20002500D01*
G75*
G02*
X12477500Y-19855000I147500J0D01*
G01*
X12772500Y-19855000D01*
G75*
G02*
X12920000Y-20002500I0J-147500D01*
G01*
G37*
G36*
G01*
X13890000Y-20002500D02*
X13890000Y-20347500D01*
G75*
G02*
X13742500Y-20495000I-147500J0D01*
G01*
X13447500Y-20495000D01*
G75*
G02*
X13300000Y-20347500I0J147500D01*
G01*
X13300000Y-20002500D01*
G75*
G02*
X13447500Y-19855000I147500J0D01*
G01*
X13742500Y-19855000D01*
G75*
G02*
X13890000Y-20002500I0J-147500D01*
G01*
G37*
G36*
G01*
X10272500Y-23010000D02*
X9927500Y-23010000D01*
G75*
G02*
X9780000Y-22862500I0J147500D01*
G01*
X9780000Y-22567500D01*
G75*
G02*
X9927500Y-22420000I147500J0D01*
G01*
X10272500Y-22420000D01*
G75*
G02*
X10420000Y-22567500I0J-147500D01*
G01*
X10420000Y-22862500D01*
G75*
G02*
X10272500Y-23010000I-147500J0D01*
G01*
G37*
G36*
G01*
X10272500Y-23980000D02*
X9927500Y-23980000D01*
G75*
G02*
X9780000Y-23832500I0J147500D01*
G01*
X9780000Y-23537500D01*
G75*
G02*
X9927500Y-23390000I147500J0D01*
G01*
X10272500Y-23390000D01*
G75*
G02*
X10420000Y-23537500I0J-147500D01*
G01*
X10420000Y-23832500D01*
G75*
G02*
X10272500Y-23980000I-147500J0D01*
G01*
G37*
M02*
